<?xml version="1.0" encoding="UTF-8" standalone="no"?>
<!DOCTYPE svg PUBLIC "-//W3C//DTD SVG 1.1//EN" "http://www.w3.org/Graphics/SVG/1.1/DTD/svg11.dtd">
<svg xmlns="http://www.w3.org/2000/svg" version="1.1" viewBox="0 0 512 512">
<g stroke-width="2.00" fill="none" stroke-linecap="butt">
<path stroke="#6c7174" vector-effect="non-scaling-stroke" d="
  M 453.96 186.50
  L 429.52 185.89
  Q 429.03 185.88 428.88 186.35
  C 427.19 191.73 422.76 194.79 419.24 198.85"
/>
<path stroke="#7fc1e3" vector-effect="non-scaling-stroke" d="
  M 490.96 280.25
  Q 489.58 279.43 488.04 280.00"
/>
<path stroke="#6c7174" vector-effect="non-scaling-stroke" d="
  M 488.04 280.00
  Q 487.40 265.58 478.25 254.46"
/>
<path stroke="#b9cfdc" vector-effect="non-scaling-stroke" d="
  M 478.25 254.46
  Q 476.97 250.68 473.17 249.32
  Q 472.69 249.15 472.48 248.69
  C 468.05 238.85 458.58 239.03 449.10 238.38
  Q 448.58 238.34 448.54 238.86
  L 446.86 261.88"
/>
<path stroke="#71a1bd" vector-effect="non-scaling-stroke" d="
  M 446.86 261.88
  L 444.79 289.50"
/>
<path stroke="#6c7174" vector-effect="non-scaling-stroke" d="
  M 444.79 289.50
  Q 445.53 309.97 427.21 318.00"
/>
<path stroke="#717e8b" vector-effect="non-scaling-stroke" d="
  M 427.21 318.00
  L 425.50 318.29"
/>
<path stroke="#71a1bd" vector-effect="non-scaling-stroke" d="
  M 425.50 318.29
  Q 424.94 318.33 424.49 318.12
  A 0.48 0.48 0.0 0 1 424.46 317.26
  C 436.26 310.79 436.78 302.89 437.92 289.07
  Q 438.74 279.16 439.29 269.25"
/>
<path stroke="#87b6ce" vector-effect="non-scaling-stroke" d="
  M 439.29 269.25
  Q 440.59 264.87 440.54 260.25"
/>
<path stroke="#b9cfdc" vector-effect="non-scaling-stroke" d="
  M 440.54 260.25
  Q 443.12 241.47 443.06 236.25
  C 442.94 225.04 427.82 224.35 420.03 223.43
  C 411.91 222.47 405.75 216.41 397.84 215.88
  Q 387.88 215.20 378.00 216.79"
/>
<path stroke="#7fc1e3" vector-effect="non-scaling-stroke" d="
  M 378.00 216.79
  Q 377.27 215.40 378.25 214.29"
/>
<path stroke="#6c7174" vector-effect="non-scaling-stroke" d="
  M 378.25 214.29
  Q 388.03 212.19 397.94 211.36
  A 0.59 0.59 0.0 0 0 398.27 210.31
  Q 396.17 208.60 393.50 209.04"
/>
<path stroke="#87b6ce" vector-effect="non-scaling-stroke" d="
  M 393.50 209.04
  L 391.46 208.97
  Q 390.93 208.95 391.00 208.43
  L 391.05 208.02
  Q 391.11 207.59 390.68 207.55
  C 387.73 207.27 383.89 207.48 381.16 206.45
  C 379.40 205.78 376.95 206.19 375.75 206.08
  Q 361.23 204.71 346.71 203.39
  C 330.65 201.93 314.84 201.95 298.88 201.99
  A 0.52 0.52 0.0 0 0 298.36 202.53
  L 298.94 218.69
  Q 298.97 219.45 299.72 219.30
  Q 302.47 218.71 304.54 220.51"
/>
<path stroke="#6c7174" vector-effect="non-scaling-stroke" d="
  M 304.54 220.51
  L 299.72 220.78
  Q 299.25 220.81 299.25 221.27
  L 299.25 240.99
  Q 299.25 241.57 299.73 241.25
  L 304.00 238.46"
/>
<path stroke="#7fc1e3" vector-effect="non-scaling-stroke" d="
  M 304.00 238.46
  Q 305.78 238.75 305.25 240.71"
/>
<path stroke="#6f93ad" vector-effect="non-scaling-stroke" d="
  M 305.25 240.71
  L 296.91 247.06
  A 0.32 0.32 0.0 0 1 296.40 246.80
  L 296.71 214.75"
/>
<path stroke="#87b6ce" vector-effect="non-scaling-stroke" d="
  M 296.71 214.75
  Q 297.12 208.60 296.39 202.51
  Q 296.31 201.87 295.68 201.87
  L 283.75 201.79"
/>
<path stroke="#b9cfdc" vector-effect="non-scaling-stroke" d="
  M 283.75 201.79
  C 282.73 201.78 278.50 202.26 278.74 200.45
  Q 278.81 199.92 279.34 199.97
  Q 282.25 200.24 284.97 199.43"
/>
<path stroke="#6c7174" vector-effect="non-scaling-stroke" d="
  M 284.97 199.43
  Q 290.68 199.31 296.33 199.48
  C 305.96 199.77 315.97 199.61 322.93 199.84
  Q 356.56 200.98 390.19 202.08
  Q 392.17 202.14 397.03 202.58
  Q 397.60 202.63 397.34 202.13
  L 395.46 198.50"
/>
<path stroke="#b9cfdc" vector-effect="non-scaling-stroke" d="
  M 395.46 198.50
  Q 395.39 197.30 395.17 196.82
  Q 389.15 183.39 383.00 170.01
  C 376.33 155.52 368.43 141.02 361.19 126.50
  C 358.55 121.21 357.27 116.43 350.37 116.47
  C 339.49 116.53 328.58 116.53 317.71 117.09
  C 301.94 117.89 287.44 117.18 270.09 117.76
  C 257.01 118.19 243.82 117.41 230.97 117.55
  C 207.59 117.79 183.89 116.43 160.50 115.72
  Q 157.76 115.64 157.17 118.83
  Q 157.08 119.30 156.68 119.58
  L 154.80 120.87
  Q 154.38 121.15 154.27 121.65
  Q 153.72 123.94 152.62 126.10
  Q 134.76 160.97 117.35 196.08
  Q 116.80 197.19 117.04 200.00"
/>
<path stroke="#6c7174" vector-effect="non-scaling-stroke" d="
  M 117.04 200.00
  L 116.67 201.29
  Q 116.55 201.72 116.94 201.95
  Q 117.18 202.10 117.50 202.04"
/>
<path stroke="#b9cfdc" vector-effect="non-scaling-stroke" d="
  M 117.50 202.04
  C 116.94 204.26 116.87 207.48 115.54 209.25"
/>
<path stroke="#6c7174" vector-effect="non-scaling-stroke" d="
  M 115.54 209.25
  L 113.56 210.79
  Q 112.76 211.42 113.77 211.28
  C 115.44 211.06 116.74 210.91 118.40 211.14
  Q 134.68 213.38 150.75 216.79"
/>
<path stroke="#b9cfdc" vector-effect="non-scaling-stroke" d="
  M 150.75 216.79
  Q 151.18 217.93 150.62 218.65
  Q 150.29 219.07 149.76 218.98
  C 142.06 217.71 134.40 215.96 126.73 215.94
  Q 117.08 215.92 112.49 216.72
  C 107.43 217.60 101.65 221.63 95.61 222.52
  C 79.11 224.97 73.32 226.09 75.13 244.66
  Q 75.89 252.48 76.50 260.29"
/>
<path stroke="#87b6ce" vector-effect="non-scaling-stroke" d="
  M 76.50 260.29
  L 77.53 274.82"
/>
<path stroke="#71a1bd" vector-effect="non-scaling-stroke" d="
  M 77.53 274.82
  Q 78.25 290.24 79.61 298.44
  Q 81.87 312.00 94.12 318.03
  Q 95.59 318.75 94.53 320.00
  Q 94.15 320.46 93.50 320.54"
/>
<path stroke="#6c7174" vector-effect="non-scaling-stroke" d="
  M 93.50 320.54
  Q 75.12 312.69 72.46 292.75"
/>
<path stroke="#74b1d5" vector-effect="non-scaling-stroke" d="
  M 72.46 292.75
  L 69.96 267.25"
/>
<path stroke="#b9cfdc" vector-effect="non-scaling-stroke" d="
  M 69.96 267.25
  L 68.17 239.25
  Q 68.13 238.73 67.62 238.67
  C 60.96 237.93 48.25 238.83 44.25 245.21"
/>
<path stroke="#6c7174" vector-effect="non-scaling-stroke" d="
  M 44.25 245.21
  Q 37.46 251.99 34.21 261.00"
/>
<path stroke="#70b7e0" vector-effect="non-scaling-stroke" d="
  M 34.21 261.00
  L 32.43 260.64
  Q 31.99 260.55 31.73 260.19
  Q 30.72 258.84 29.00 258.71"
/>
<path stroke="#6c7174" vector-effect="non-scaling-stroke" d="
  M 92.46 199.75
  L 92.57 199.28
  Q 92.64 198.97 92.42 198.74
  C 88.73 194.89 85.67 191.31 83.12 186.63
  Q 82.91 186.25 82.47 186.25
  L 59.76 186.25
  Q 59.31 186.25 59.26 185.80
  L 59.21 185.25"
/>
<path stroke="#084061" vector-effect="non-scaling-stroke" d="
  M 72.46 292.75
  Q 66.02 296.70 65.27 303.47
  C 63.34 320.95 73.08 332.19 88.73 338.20"
/>
<path stroke="#0e70aa" vector-effect="non-scaling-stroke" d="
  M 88.73 338.20
  L 86.25 357.83"
/>
<path stroke="#559ec9" vector-effect="non-scaling-stroke" d="
  M 86.25 357.83
  Q 82.12 357.30 78.17 358.29"
/>
<path stroke="#2176a3" vector-effect="non-scaling-stroke" d="
  M 439.29 269.25
  C 438.48 259.60 437.67 251.00 430.72 244.81
  Q 428.77 243.08 425.71 242.28
  Q 415.38 239.59 411.05 239.22
  C 403.06 238.53 394.15 236.49 387.72 235.34
  Q 381.26 234.18 374.81 233.02
  C 372.67 232.64 370.48 231.45 367.92 231.32
  Q 367.34 231.29 367.89 231.09
  Q 368.09 231.01 368.30 230.93
  Q 368.79 230.75 368.28 230.64
  Q 366.23 230.19 364.37 229.21
  Q 362.91 228.44 364.47 228.97
  Q 368.54 230.37 372.67 231.60
  Q 375.25 232.37 372.76 231.36
  Q 363.82 227.77 354.66 224.76
  Q 354.15 224.59 354.02 224.08
  Q 353.79 223.21 353.25 222.71"
/>
<path stroke="#0b3e60" vector-effect="non-scaling-stroke" d="
  M 446.21 356.25
  C 445.08 356.42 444.03 356.76 442.90 356.76
  Q 423.12 356.72 403.33 356.77
  Q 395.67 356.79 392.89 357.73
  C 385.73 360.14 381.61 367.83 378.96 374.50"
/>
<path stroke="#15496c" vector-effect="non-scaling-stroke" d="
  M 376.54 374.50
  C 377.79 371.24 381.60 364.28 379.96 361.05
  C 376.61 354.47 369.47 343.43 362.00 341.75
  C 356.37 340.48 346.17 341.46 341.34 341.47
  Q 248.70 341.64 156.06 341.31
  Q 151.97 341.30 147.50 342.79"
/>
<path stroke="#0b3e60" vector-effect="non-scaling-stroke" d="
  M 147.50 342.79
  L 141.42 340.58
  Q 140.93 340.40 140.87 339.89
  Q 140.73 338.85 140.00 338.21"
/>
<path stroke="#0a273f" vector-effect="non-scaling-stroke" d="
  M 129.03 333.66
  L 130.22 321.83
  Q 130.27 321.35 130.74 321.28
  Q 131.33 321.18 131.75 320.79"
/>
<path stroke="#60aed6" vector-effect="non-scaling-stroke" d="
  M 378.00 216.79
  L 370.25 218.46"
/>
<path stroke="#2e96c8" vector-effect="non-scaling-stroke" d="
  M 370.25 218.46
  L 353.25 222.71"
/>
<path stroke="#1980b8" vector-effect="non-scaling-stroke" d="
  M 353.25 222.71
  Q 335.51 226.32 319.00 233.71"
/>
<path stroke="#1773a7" vector-effect="non-scaling-stroke" d="
  M 305.25 240.71
  Q 311.89 236.75 319.00 233.71"
/>
<path stroke="#095382" vector-effect="non-scaling-stroke" d="
  M 319.00 233.71
  C 322.09 236.72 324.63 234.22 327.41 236.15
  Q 327.81 236.43 328.28 236.52
  C 330.79 237.00 332.86 237.43 335.61 237.47
  C 339.37 237.53 343.32 238.82 346.38 239.22
  Q 352.62 240.05 358.86 240.97
  C 361.46 241.35 364.56 240.99 367.47 241.76
  C 374.47 243.59 381.46 244.34 388.56 245.53
  Q 388.62 245.54 399.50 247.04
  C 408.46 248.27 423.07 251.92 429.05 259.06
  Q 429.36 259.44 429.27 259.91
  Q 428.99 261.45 430.18 262.39
  Q 430.51 262.65 430.66 263.06
  L 432.26 267.50
  Q 432.41 267.90 432.29 268.30
  L 431.71 270.25"
/>
<path stroke="#042339" vector-effect="non-scaling-stroke" d="
  M 431.71 270.25
  Q 429.94 268.16 428.00 268.04
  Q 417.71 267.43 398.31 267.67
  C 367.02 268.05 335.73 267.66 304.44 268.08
  Q 293.29 268.22 284.43 268.22
  Q 203.72 268.15 123.00 267.96"
/>
<path stroke="#095382" vector-effect="non-scaling-stroke" d="
  M 123.00 267.96
  L 124.28 267.76
  Q 124.68 267.70 124.93 267.39
  L 127.70 263.90
  Q 127.97 263.56 128.10 263.15
  C 128.49 261.93 135.69 259.43 137.20 258.78
  Q 137.37 258.71 137.75 258.75
  Q 137.92 258.77 138.03 258.89
  Q 138.26 259.16 138.60 259.05
  L 148.22 255.75
  Q 148.62 255.62 148.75 255.22
  C 149.11 254.15 157.69 251.16 159.07 250.71
  C 165.64 248.56 173.72 247.91 181.07 246.72
  C 184.52 246.16 188.11 244.36 191.51 243.81
  Q 199.32 242.54 204.87 240.74
  Q 205.35 240.59 205.60 240.15
  L 206.54 238.50"
/>
<path stroke="#559ec9" vector-effect="non-scaling-stroke" d="
  M 69.96 267.25
  Q 66.94 264.12 62.50 263.91"
/>
<path stroke="#4d5e68" vector-effect="non-scaling-stroke" d="
  M 62.50 263.91
  L 62.82 257.83
  A 0.36 0.36 0.0 0 0 62.13 257.65
  Q 60.18 261.55 60.21 265.75"
/>
<path stroke="#52a5d4" vector-effect="non-scaling-stroke" d="
  M 60.21 265.75
  C 57.71 266.50 52.69 268.44 50.54 266.50"
/>
<path stroke="#4d5e68" vector-effect="non-scaling-stroke" d="
  M 50.54 266.50
  L 51.31 253.14
  Q 51.35 252.55 50.76 252.50
  C 48.00 252.27 46.56 269.28 46.46 271.25"
/>
<path stroke="#52a5d4" vector-effect="non-scaling-stroke" d="
  M 46.46 271.25
  Q 44.76 271.72 43.45 270.72
  Q 43.05 270.41 42.55 270.38
  Q 39.33 270.19 36.54 268.50"
/>
<path stroke="#4d5e68" vector-effect="non-scaling-stroke" d="
  M 36.54 268.50
  Q 38.32 256.30 44.44 245.60
  Q 44.50 245.50 44.42 245.40
  Q 44.33 245.31 44.25 245.21"
/>
<path stroke="#1b465a" vector-effect="non-scaling-stroke" d="
  M 393.50 209.04
  Q 372.88 211.87 357.00 215.25
  Q 330.28 220.94 304.54 220.51"
/>
<path stroke="#1f6892" vector-effect="non-scaling-stroke" d="
  M 296.71 214.75
  L 296.46 213.57
  Q 296.35 213.03 295.81 213.13
  C 292.00 213.85 287.38 213.38 284.60 213.42
  Q 271.64 213.61 258.68 213.29
  C 256.27 213.23 253.57 213.77 251.00 213.77
  Q 238.01 213.76 225.03 214.33
  C 223.23 214.41 221.61 214.95 219.74 215.17
  Q 219.21 215.23 219.18 215.76
  Q 219.07 217.90 218.04 219.75"
/>
<path stroke="#52a5d4" vector-effect="non-scaling-stroke" d="
  M 106.67 385.20
  Q 108.19 384.59 109.91 384.92"
/>
<path stroke="#05476c" vector-effect="non-scaling-stroke" d="
  M 29.71 384.50
  Q 29.86 383.20 29.71 382.80
  Q 27.45 376.71 26.54 370.24
  Q 26.47 369.71 25.94 369.72
  Q 24.27 369.76 22.79 370.50"
/>
<path stroke="#063049" vector-effect="non-scaling-stroke" d="
  M 123.00 267.96
  Q 107.44 268.50 91.82 268.21
  Q 88.43 268.14 86.90 269.28
  Q 84.25 271.23 85.70 275.09"
/>
<path stroke="#7eacc7" vector-effect="non-scaling-stroke" d="
  M 85.70 275.09
  Q 84.66 283.07 85.45 291.38
  Q 85.51 291.96 86.09 291.97
  C 88.52 292.03 90.84 292.52 93.15 292.51
  Q 110.58 292.46 128.00 292.54"
/>
<path stroke="#095382" vector-effect="non-scaling-stroke" d="
  M 128.00 292.54
  Q 126.33 292.65 126.74 294.11
  A 0.77 0.77 0.0 0 0 127.44 294.67
  Q 147.89 295.70 166.75 295.04"
/>
<path stroke="#063049" vector-effect="non-scaling-stroke" d="
  M 166.75 295.04
  Q 182.74 295.90 198.75 295.92
  C 248.75 295.97 298.97 297.02 348.94 295.39
  Q 350.69 295.33 355.49 294.85
  C 362.31 294.17 369.04 294.93 375.98 294.11
  Q 376.26 294.08 376.25 293.79
  Q 376.25 293.65 376.25 293.52
  Q 376.24 293.03 375.76 293.02
  Q 375.33 293.00 375.00 292.79"
/>
<path stroke="#7eacc7" vector-effect="non-scaling-stroke" d="
  M 375.00 292.79
  Q 398.84 292.28 422.69 292.44
  Q 426.87 292.47 430.99 291.65
  Q 431.51 291.55 431.75 291.07
  C 432.52 289.51 434.93 280.31 430.39 281.82
  Q 429.90 281.98 429.79 282.49
  L 429.46 284.01
  Q 429.31 284.71 428.78 284.24
  Q 427.22 282.86 424.75 282.90
  Q 396.38 283.36 357.25 282.98
  Q 356.72 282.97 356.42 283.40
  Q 353.67 287.30 353.00 291.96"
/>
<path stroke="#063049" vector-effect="non-scaling-stroke" d="
  M 353.00 291.96
  L 351.00 291.79"
/>
<path stroke="#7eacc7" vector-effect="non-scaling-stroke" d="
  M 351.00 291.79
  Q 351.84 291.92 352.01 291.23
  Q 353.62 284.77 356.72 279.27
  Q 357.01 278.76 357.59 278.76
  L 432.20 278.75
  Q 432.52 278.75 432.53 278.43
  L 432.54 275.25"
/>
<path stroke="#063049" vector-effect="non-scaling-stroke" d="
  M 432.54 275.25
  Q 433.63 275.35 433.88 274.53
  Q 434.02 274.06 433.77 273.64
  L 431.71 270.25"
/>
<path stroke="#0b3e60" vector-effect="non-scaling-stroke" d="
  M 425.50 318.29
  Q 420.54 319.96 418.00 320.03
  C 404.97 320.39 391.74 320.98 378.91 320.98
  C 296.52 321.01 214.11 321.36 131.75 320.79"
/>
<path stroke="#0a4a72" vector-effect="non-scaling-stroke" d="
  M 131.75 320.79
  C 124.61 320.19 115.43 320.74 110.42 320.72
  Q 102.21 320.70 94.00 320.79"
/>
<path stroke="#063049" vector-effect="non-scaling-stroke" d="
  M 94.00 320.79
  L 93.50 320.54"
/>
<path stroke="#4d5e68" vector-effect="non-scaling-stroke" d="
  M 395.46 198.50
  Q 389.74 188.52 382.96 173.77
  Q 376.06 158.76 359.60 126.36
  C 357.66 122.53 356.91 120.30 352.77 120.29
  C 334.28 120.25 308.79 119.58 285.69 119.53
  Q 222.10 119.37 159.06 119.96
  A 2.37 2.36 13.1 0 0 156.96 121.26
  L 117.04 200.00"
/>
<path stroke="#68a4c1" vector-effect="non-scaling-stroke" d="
  M 440.54 260.25
  Q 440.57 249.31 433.03 241.80
  C 432.09 240.86 428.48 239.38 427.25 239.00
  Q 419.91 236.76 412.65 234.29
  C 405.29 231.79 397.55 230.75 390.31 228.07
  Q 384.53 225.93 378.81 223.60
  C 376.77 222.77 375.53 220.94 372.94 220.65
  Q 372.44 220.59 372.09 220.24
  L 370.25 218.46"
/>
<path stroke="#4d5e68" vector-effect="non-scaling-stroke" d="
  M 478.25 254.46
  L 482.29 265.25"
/>
<path stroke="#559ec9" vector-effect="non-scaling-stroke" d="
  M 482.29 265.25
  Q 482.55 266.97 480.96 267.21
  C 475.67 268.01 474.58 263.47 473.82 259.49
  Q 473.79 259.29 473.59 259.26
  Q 473.41 259.23 473.29 259.25"
/>
<path stroke="#4d5e68" vector-effect="non-scaling-stroke" d="
  M 473.29 259.25
  L 471.27 251.39
  Q 471.07 250.58 470.62 251.28
  C 469.29 253.33 471.08 270.42 471.29 274.00"
/>
<path stroke="#5d99bd" vector-effect="non-scaling-stroke" d="
  M 471.29 274.00
  L 471.26 279.26
  A 0.79 0.79 0.0 0 1 470.30 280.02
  Q 467.61 279.45 465.09 280.58
  Q 464.93 280.66 465.02 280.81
  L 465.24 281.18
  Q 465.67 281.91 464.88 281.61
  Q 463.86 281.21 462.87 280.65
  Q 462.46 280.43 462.48 279.97
  Q 462.62 275.91 462.19 278.50"
/>
<path stroke="#4d5e68" vector-effect="non-scaling-stroke" d="
  M 462.19 278.50
  C 462.12 273.52 461.73 256.65 458.03 251.45
  Q 457.18 250.26 457.28 251.72
  L 457.96 261.25"
/>
<path stroke="#538eb1" vector-effect="non-scaling-stroke" d="
  M 457.96 261.25
  L 457.62 261.92
  Q 457.36 262.44 456.79 262.34
  Q 451.74 261.48 446.86 261.88"
/>
<path stroke="#1980b8" vector-effect="non-scaling-stroke" d="
  M 418.50 393.96
  Q 419.88 392.73 418.51 392.21"
/>
<path stroke="#084061" vector-effect="non-scaling-stroke" d="
  M 473.29 259.25
  Q 475.19 269.03 475.25 279.00
  Q 475.46 309.97 474.94 340.95
  C 474.88 345.01 475.19 347.95 477.19 351.12
  A 1.31 1.31 0.0 0 0 479.16 351.40
  C 484.07 347.10 485.27 343.20 485.35 336.30
  Q 485.58 317.66 485.36 284.44
  Q 485.29 273.93 482.29 265.25"
/>
<path stroke="#13506f" vector-effect="non-scaling-stroke" d="
  M 488.04 280.00
  C 488.44 302.24 488.23 320.56 488.25 338.16
  Q 488.26 362.73 477.06 382.56
  C 470.96 393.37 452.49 410.01 440.79 396.68
  Q 440.28 396.10 439.93 396.79
  C 432.58 411.26 425.03 388.59 418.47 388.26
  Q 417.87 388.23 417.96 388.82
  L 418.51 392.21"
/>
<path stroke="#063049" vector-effect="non-scaling-stroke" d="
  M 418.51 392.21
  Q 415.55 388.14 412.12 386.03
  A 0.44 0.44 0.0 0 1 412.36 385.22
  C 421.03 385.46 433.03 386.73 438.24 377.95
  Q 443.07 369.80 446.14 357.96
  Q 446.35 357.15 446.21 356.25"
/>
<path stroke="#050e17" vector-effect="non-scaling-stroke" d="
  M 446.21 356.25
  Q 446.66 350.03 448.39 344.09
  C 450.75 336.00 450.34 326.57 449.70 318.33
  A 0.82 0.82 0.0 0 0 448.16 318.01
  C 444.27 325.26 439.61 332.51 431.92 336.28
  C 423.97 340.18 411.46 340.75 402.26 341.24
  A 0.35 0.35 0.0 0 1 402.05 340.60
  Q 414.87 332.20 425.88 321.52
  Q 426.25 321.16 426.40 320.68
  L 427.21 318.00"
/>
<path stroke="#063049" vector-effect="non-scaling-stroke" d="
  M 444.79 289.50
  Q 446.20 290.08 447.73 290.45
  C 451.36 291.32 453.09 294.76 453.27 298.26
  C 453.77 308.28 452.64 318.71 452.41 328.41
  Q 452.25 334.90 451.83 341.41
  Q 451.80 341.92 452.11 342.32
  C 453.50 344.08 454.28 345.28 454.30 347.66
  Q 454.41 361.23 450.46 374.24
  Q 450.06 375.56 450.02 378.67
  Q 450.01 379.28 450.62 379.26
  C 456.82 379.01 458.40 350.39 458.63 345.93
  C 458.87 341.34 460.50 337.41 460.49 332.61
  C 460.45 308.77 459.87 285.01 457.96 261.25"
/>
<path stroke="#103b56" vector-effect="non-scaling-stroke" d="
  M 462.19 278.50
  L 462.24 333.96
  Q 462.24 334.35 462.39 334.70
  Q 462.61 335.21 462.47 335.83
  Q 462.35 336.36 462.69 336.78
  Q 465.98 340.81 465.99 342.80
  C 466.06 357.08 464.72 370.64 460.08 384.20
  A 0.83 0.83 0.0 0 0 461.18 385.24
  Q 461.98 384.92 462.61 383.87
  C 469.19 372.89 469.62 360.47 470.33 348.07
  C 470.41 346.70 471.56 345.14 471.55 344.00
  C 471.33 320.71 472.33 297.26 471.29 274.00"
/>
<path stroke="#13506f" vector-effect="non-scaling-stroke" d="
  M 378.25 214.29
  C 353.29 218.64 326.23 226.11 304.00 238.46"
/>
<path stroke="#60aed6" vector-effect="non-scaling-stroke" d="
  M 254.04 192.25
  L 255.00 194.54"
/>
<path stroke="#68a4c1" vector-effect="non-scaling-stroke" d="
  M 283.75 201.79
  Q 275.23 202.30 266.68 202.27
  Q 242.61 202.18 218.47 202.41
  Q 217.92 202.41 217.92 202.97
  L 218.04 219.75"
/>
<path stroke="#5181a0" vector-effect="non-scaling-stroke" d="
  M 218.04 219.75
  Q 218.21 230.36 218.48 240.97
  C 218.52 242.60 219.48 244.38 219.47 245.72
  A 0.94 0.94 0.0 0 1 217.87 246.39
  Q 212.42 241.03 206.54 238.50"
/>
<path stroke="#538eb1" vector-effect="non-scaling-stroke" d="
  M 206.54 238.50
  C 191.80 230.13 175.75 224.99 159.25 221.72"
/>
<path stroke="#68a4c1" vector-effect="non-scaling-stroke" d="
  M 159.25 221.72
  L 156.46 220.68
  Q 156.06 220.53 155.76 220.83
  C 153.63 222.87 151.95 224.54 149.02 225.55
  C 138.99 229.02 128.89 231.23 118.71 234.06
  C 114.10 235.34 109.27 235.44 104.98 236.95
  C 98.29 239.30 85.68 242.62 81.47 249.00
  Q 78.04 254.20 76.50 260.29"
/>
<path stroke="#4d5e68" vector-effect="non-scaling-stroke" d="
  M 150.75 216.79
  C 172.56 221.35 197.11 228.25 215.01 240.60
  Q 215.49 240.93 215.49 240.35
  L 215.46 220.75"
/>
<path stroke="#68a4c1" vector-effect="non-scaling-stroke" d="
  M 215.46 220.75
  Q 216.21 212.28 215.95 203.62
  Q 215.91 202.44 214.73 202.50
  C 194.26 203.52 173.98 203.14 153.48 204.83
  C 150.54 205.07 147.53 204.93 144.52 205.02
  C 140.63 205.13 136.66 206.84 132.32 206.95
  Q 131.82 206.96 131.44 207.30
  Q 129.40 209.10 126.75 209.29"
/>
<path stroke="#4d5e68" vector-effect="non-scaling-stroke" d="
  M 126.75 209.29
  Q 121.14 208.56 115.54 209.25"
/>
<path stroke="#05476c" vector-effect="non-scaling-stroke" d="
  M 36.54 268.50
  Q 35.77 273.22 35.76 278.00
  C 35.73 303.45 35.77 328.86 36.11 354.32
  Q 36.12 354.85 36.45 355.28
  Q 39.37 359.04 39.56 360.48
  C 41.00 371.41 41.58 379.82 48.73 388.61
  A 0.44 0.44 0.0 0 0 49.47 388.14
  Q 43.92 376.65 43.58 363.80
  C 43.50 360.72 44.62 359.05 46.22 356.60
  Q 46.50 356.18 46.49 355.68
  Q 45.59 313.46 46.46 271.25"
/>
<path stroke="#05476c" vector-effect="non-scaling-stroke" d="
  M 50.54 266.50
  Q 50.18 272.24 50.18 278.00
  Q 50.18 315.10 49.77 352.19
  C 49.73 355.34 51.72 357.61 51.86 360.94
  C 52.25 370.00 53.24 376.38 58.59 382.60
  A 0.89 0.89 0.0 0 0 60.12 381.76
  C 56.87 370.95 56.79 358.60 56.49 347.21
  C 56.40 343.76 57.58 341.67 59.92 339.45
  Q 60.29 339.10 60.29 338.59
  Q 60.25 300.63 59.91 289.31
  Q 59.50 275.76 60.21 265.75"
/>
<path stroke="#084061" vector-effect="non-scaling-stroke" d="
  M 62.50 263.91
  Q 62.09 267.83 61.99 271.57
  Q 61.16 303.91 61.72 336.25
  C 61.74 337.23 62.01 338.25 62.73 339.16
  C 71.30 349.92 64.37 364.01 71.22 373.01
  Q 71.52 373.41 71.92 373.10
  C 72.98 372.28 70.30 367.54 70.33 365.91
  Q 70.45 358.83 78.17 358.29"
/>
<path stroke="#4d5e68" vector-effect="non-scaling-stroke" d="
  M 78.17 358.29
  C 81.77 365.29 85.79 382.23 94.74 384.27
  Q 97.15 384.82 106.67 385.20"
/>
<path stroke="#05476c" vector-effect="non-scaling-stroke" d="
  M 106.67 385.20
  C 99.99 392.94 77.87 410.92 71.32 394.39
  Q 70.88 393.28 70.64 394.45
  L 69.99 397.57
  Q 69.90 398.01 69.62 398.35
  C 64.36 404.78 59.65 399.68 55.87 395.38
  Q 55.50 394.95 55.22 395.44
  L 53.01 399.40
  Q 52.73 399.90 52.20 400.16
  Q 47.90 402.26 44.18 398.77
  Q 31.71 387.08 31.75 369.49
  Q 31.84 323.04 31.77 276.56
  Q 31.75 269.87 34.21 261.00"
/>
<path stroke="#2176a3" vector-effect="non-scaling-stroke" d="
  M 159.25 221.72
  Q 153.92 228.93 144.68 229.81
  Q 139.67 230.28 134.82 231.60
  Q 123.09 234.79 111.32 237.78
  C 106.15 239.09 99.39 239.23 94.60 242.18
  C 91.63 244.01 88.21 244.97 86.07 247.25
  C 81.79 251.79 80.96 259.15 79.93 264.95
  Q 79.68 266.36 78.60 269.82
  Q 77.84 272.24 77.53 274.82"
/>
<path stroke="#051a29" vector-effect="non-scaling-stroke" d="
  M 94.00 320.79
  Q 110.88 328.76 129.03 333.66"
/>
<path stroke="#050e17" vector-effect="non-scaling-stroke" d="
  M 129.03 333.66
  L 141.87 336.32
  A 0.42 0.41 36.3 0 1 141.99 337.09
  L 140.00 338.21"
/>
<path stroke="#063049" vector-effect="non-scaling-stroke" d="
  M 140.00 338.21
  Q 132.74 341.14 125.65 344.47
  C 116.35 348.84 98.26 341.70 88.73 338.20"
/>
<path stroke="#4d5e68" vector-effect="non-scaling-stroke" d="
  M 284.97 199.43
  Q 287.44 198.52 290.00 198.44
  Q 293.94 198.32 295.01 198.14
  Q 336.51 191.08 378.01 183.95
  Q 378.52 183.86 378.43 183.36
  C 378.04 181.07 376.64 180.32 374.32 180.69
  C 335.38 186.83 296.50 194.08 257.37 198.90
  Q 256.80 198.97 256.58 198.44
  L 255.00 194.54"
/>
<path stroke="#13506f" vector-effect="non-scaling-stroke" d="
  M 255.00 194.54
  L 255.74 195.25
  Q 256.13 195.62 256.68 195.58
  Q 258.83 195.42 260.97 195.09
  Q 302.30 188.70 343.75 183.28
  Q 344.46 183.19 347.00 182.46"
/>
<path stroke="#084061" vector-effect="non-scaling-stroke" d="
  M 347.00 182.46
  L 375.36 178.32
  Q 375.90 178.24 375.67 177.74
  Q 365.89 157.15 355.02 137.12
  C 353.39 134.12 353.31 131.77 349.01 131.78
  Q 321.54 131.89 293.99 131.52
  A 0.32 0.32 0.0 0 0 293.71 132.01
  Q 300.15 142.08 304.93 153.05
  A 0.26 0.26 0.0 0 1 304.65 153.41
  L 278.25 149.96"
/>
<path stroke="#050e17" vector-effect="non-scaling-stroke" d="
  M 278.25 149.96
  Q 273.36 147.98 267.00 147.23
  Q 248.72 145.08 232.04 146.07"
/>
<path stroke="#13506f" vector-effect="non-scaling-stroke" d="
  M 232.04 146.07
  Q 228.99 145.51 227.50 145.51
  Q 198.88 145.48 170.27 145.52
  C 167.24 145.52 165.52 148.87 164.02 151.09
  A 0.42 0.41 -72.8 0 0 164.36 151.74
  Q 194.87 151.85 225.50 151.41
  Q 226.66 151.39 227.87 151.81
  Q 228.35 151.97 228.56 152.43
  L 240.13 177.19"
/>
<path stroke="#4d5e68" vector-effect="non-scaling-stroke" d="
  M 240.13 177.19
  Q 244.93 188.44 250.86 199.27
  Q 251.14 199.78 250.55 199.79
  L 117.50 202.04"
/>
<path stroke="#1b465a" vector-effect="non-scaling-stroke" d="
  M 215.46 220.75
  C 199.62 221.18 184.78 220.46 168.86 217.02
  Q 147.93 212.51 126.75 209.29"
/>
<path stroke="#156b9f" vector-effect="non-scaling-stroke" d="
  M 147.50 342.79
  C 139.60 346.36 133.76 356.95 131.29 365.00"
/>
<path stroke="#538eb1" vector-effect="non-scaling-stroke" d="
  M 131.29 365.00
  C 129.53 360.34 124.89 358.63 120.25 358.53
  Q 103.25 358.17 86.25 357.83"
/>
<path stroke="#5d99bd" vector-effect="non-scaling-stroke" d="
  M 136.66 378.06
  L 131.29 365.00"
/>
<path stroke="#797c7e" vector-effect="non-scaling-stroke" d="
  M 432.54 275.25
  Q 431.57 270.81 426.75 270.80
  Q 384.31 270.74 362.18 271.07
  C 357.37 271.14 354.42 270.90 352.06 274.79
  Q 347.73 281.92 348.70 290.17
  C 348.87 291.62 349.57 292.12 351.00 291.79"
/>
<path stroke="#797c7e" vector-effect="non-scaling-stroke" d="
  M 353.00 291.96
  C 353.49 292.23 353.76 292.50 354.37 292.51
  Q 364.68 292.65 375.00 292.79"
/>
<path stroke="#042339" vector-effect="non-scaling-stroke" d="
  M 166.75 295.04
  L 165.69 294.90
  Q 165.04 294.82 165.18 294.17
  L 165.50 292.79"
/>
<path stroke="#797c7e" vector-effect="non-scaling-stroke" d="
  M 165.50 292.79
  L 166.50 292.71"
/>
<path stroke="#063049" vector-effect="non-scaling-stroke" d="
  M 166.50 292.71
  L 168.00 292.21"
/>
<path stroke="#797c7e" vector-effect="non-scaling-stroke" d="
  M 168.00 292.21
  C 175.26 291.47 170.16 278.79 168.22 275.29
  Q 165.79 270.88 160.50 270.84
  Q 105.49 270.34 90.81 270.48
  Q 86.97 270.52 85.70 275.09"
/>
<path stroke="#7eacc7" vector-effect="non-scaling-stroke" d="
  M 168.00 292.21
  C 165.95 288.10 165.95 283.29 163.05 279.24
  Q 162.72 278.78 162.16 278.78
  L 89.89 278.57
  A 1.74 1.74 0.0 0 0 88.24 280.86
  L 88.86 282.74
  Q 89.04 283.29 89.62 283.37
  Q 90.05 283.43 90.51 283.22
  Q 90.90 283.04 91.34 283.04
  L 162.39 283.33
  Q 162.90 283.33 163.16 283.77
  Q 165.67 287.99 166.50 292.71"
/>
<path stroke="#7c9fb7" vector-effect="non-scaling-stroke" d="
  M 165.50 292.79
  L 128.00 292.54"
/>
<path stroke="#050e17" vector-effect="non-scaling-stroke" d="
  M 280.50 154.04
  Q 280.65 155.86 282.10 157.16
  Q 294.83 168.53 307.32 180.18
  Q 308.09 180.89 309.00 182.71"
/>
<path stroke="#185e85" vector-effect="non-scaling-stroke" d="
  M 309.00 182.71
  Q 282.23 186.59 255.53 190.91
  C 254.64 191.06 254.26 191.42 254.04 192.25"
/>
<path stroke="#526c7e" vector-effect="non-scaling-stroke" d="
  M 254.04 192.25
  Q 244.16 169.19 232.46 147.00"
/>
<path stroke="#185e85" vector-effect="non-scaling-stroke" d="
  M 232.04 146.07
  L 232.46 147.00"
/>
<path stroke="#60aed6" vector-effect="non-scaling-stroke" d="
  M 232.46 147.00
  Q 230.12 147.13 228.68 148.76
  Q 228.29 149.21 228.55 149.75
  Q 235.16 163.13 240.13 177.19"
/>
<path stroke="#1b90d0" vector-effect="non-scaling-stroke" d="
  M 347.00 182.46
  Q 347.68 180.79 347.48 179.00
  Q 347.42 178.55 346.97 178.50
  L 346.50 178.46"
/>
<path stroke="#084061" vector-effect="non-scaling-stroke" d="
  M 346.50 178.46
  L 347.29 178.20
  Q 347.92 177.99 347.32 177.70
  C 335.75 171.89 324.77 165.53 312.85 160.27
  C 303.24 156.04 291.57 155.05 280.50 154.04"
/>
<path stroke="#0d4e78" vector-effect="non-scaling-stroke" d="
  M 280.50 154.04
  L 277.63 153.47
  Q 277.02 153.35 276.83 152.77
  L 276.20 150.79
  Q 275.97 150.05 276.74 150.02
  L 278.25 149.96"
/>
<path stroke="#13506f" vector-effect="non-scaling-stroke" d="
  M 346.50 178.46
  Q 329.66 180.06 313.00 183.00
  Q 311.45 183.27 309.00 182.71"
/>
<path stroke="#1773a7" vector-effect="non-scaling-stroke" d="
  M 260.57 262.31
  Q 260.38 260.75 260.91 259.24
  Q 261.12 258.63 260.48 258.61
  C 256.48 258.44 252.39 258.21 251.51 262.39
  A 1.68 1.67 -84.6 0 0 253.18 264.41
  L 265.80 264.18
  Q 266.34 264.17 266.46 263.64
  L 267.44 259.17
  Q 267.58 258.55 266.94 258.59
  L 262.96 258.82
  Q 262.43 258.85 262.38 259.37
  Q 262.24 261.02 261.42 262.47
  Q 260.75 263.67 260.57 262.31"
/>
<path stroke="#063049" vector-effect="non-scaling-stroke" d="
  M 86.88 303.96
  Q 85.66 304.61 86.52 305.99
  Q 92.89 316.18 105.25 316.96
  C 120.42 317.90 139.24 317.25 154.06 317.31
  Q 184.69 317.44 215.31 317.95
  C 259.44 318.69 333.45 316.86 411.46 317.35
  C 418.61 317.40 426.16 311.04 430.19 305.56"
/>
<path stroke="#0a4a72" vector-effect="non-scaling-stroke" d="
  M 430.19 305.56
  Q 431.40 304.31 430.19 303.00
  Q 429.83 302.61 429.30 302.55
  Q 425.53 302.11 421.75 302.09
  C 336.25 301.58 261.44 302.93 165.07 302.04
  C 148.41 301.89 132.59 302.21 115.07 301.99
  C 110.07 301.93 89.93 300.81 86.88 303.96"
/>
<path stroke="#051a29" vector-effect="non-scaling-stroke" d="
  M 430.19 305.56
  Q 427.30 305.91 424.67 306.62
  C 418.93 308.17 412.76 308.44 407.19 308.43
  C 305.80 308.27 204.38 307.97 103.00 308.75
  C 97.97 308.79 90.35 307.76 86.88 303.96"
/>
<path stroke="#1980b8" vector-effect="non-scaling-stroke" d="
  M 255.1990 261.1193
  A 0.99 0.57 -35.2 0 0 254.0614 261.2242
  A 0.99 0.57 -35.2 0 0 253.5810 262.2607
  A 0.99 0.57 -35.2 0 0 254.7186 262.1558
  A 0.99 0.57 -35.2 0 0 255.1990 261.1193"
/>
<path stroke="#103b56" vector-effect="non-scaling-stroke" d="
  M 172.08 278.32
  C 172.89 279.06 174.12 279.21 175.00 279.20
  C 231.22 278.95 287.46 279.37 343.68 278.72
  Q 347.47 278.68 347.91 275.17
  Q 347.97 274.72 347.52 274.72
  L 174.72 274.76
  A 2.77 2.49 -52.4 0 0 173.91 274.91
  Q 169.93 276.39 172.08 278.32"
/>
<path stroke="#103b56" vector-effect="non-scaling-stroke" d="
  M 366.51 349.38
  C 362.78 345.43 360.53 345.02 355.25 345.02
  Q 255.90 344.97 156.56 345.07
  C 146.65 345.09 137.27 355.56 136.41 365.21
  Q 136.37 365.73 136.66 366.17
  Q 141.27 373.16 145.79 380.22
  C 149.19 385.53 151.48 388.42 157.25 388.45
  Q 277.50 388.98 354.44 388.58
  Q 359.40 388.55 362.01 385.76
  C 364.07 383.56 377.34 366.33 375.49 362.50
  Q 371.98 355.19 366.51 349.38"
/>
<path stroke="#063049" vector-effect="non-scaling-stroke" d="
  M 386.96 380.28
  Q 388.50 381.30 389.32 381.29
  C 402.09 381.06 415.32 381.68 428.01 380.51
  C 433.46 380.01 438.19 365.46 439.46 361.05
  A 0.42 0.42 0.0 0 0 439.06 360.51
  Q 420.17 360.47 401.32 360.52
  Q 396.23 360.53 393.92 361.47
  C 388.69 363.60 380.12 375.75 386.96 380.28"
/>
<path stroke="#527890" vector-effect="non-scaling-stroke" d="
  M 127.29 365.50
  Q 124.22 361.87 121.25 361.75
  Q 108.00 361.23 94.75 360.71"
/>
<path stroke="#538eb1" vector-effect="non-scaling-stroke" d="
  M 94.75 360.71
  L 86.26 359.97
  Q 85.38 359.89 85.57 360.75
  C 86.90 366.61 91.60 381.16 98.75 381.50
  C 101.85 381.64 125.47 383.29 129.30 380.50
  C 133.99 377.08 130.54 368.92 127.29 365.50"
/>
<path stroke="#0a4a72" vector-effect="non-scaling-stroke" d="
  M 94.75 360.71
  L 92.22 360.76
  Q 91.99 360.76 92.00 360.99
  Q 92.00 361.12 92.00 361.26
  Q 92.00 361.74 92.48 361.81
  Q 104.87 363.60 109.50 363.76
  Q 118.96 364.08 123.00 364.72
  C 123.57 364.82 127.16 367.29 127.29 365.50"
/>
</g>
<path fill="#d7e1e8" d="
  M 453.96 186.50
  L 429.52 185.89
  Q 429.03 185.88 428.88 186.35
  C 427.19 191.73 422.76 194.79 419.24 198.85
  L 413.76 206.81
  A 1.34 1.33 47.3 0 0 413.71 208.23
  Q 416.07 212.30 416.22 217.03
  Q 416.24 217.53 416.65 217.83
  Q 418.02 218.83 419.75 219.02
  C 431.58 220.33 443.55 221.31 448.68 234.06
  Q 448.88 234.57 449.43 234.55
  C 461.60 234.20 470.34 236.56 477.31 246.69
  C 484.48 257.12 491.82 266.76 490.96 280.25
  Q 489.58 279.43 488.04 280.00
  Q 487.40 265.58 478.25 254.46
  Q 476.97 250.68 473.17 249.32
  Q 472.69 249.15 472.48 248.69
  C 468.05 238.85 458.58 239.03 449.10 238.38
  Q 448.58 238.34 448.54 238.86
  L 446.86 261.88
  L 444.79 289.50
  Q 445.53 309.97 427.21 318.00
  L 425.50 318.29
  Q 424.94 318.33 424.49 318.12
  A 0.48 0.48 0.0 0 1 424.46 317.26
  C 436.26 310.79 436.78 302.89 437.92 289.07
  Q 438.74 279.16 439.29 269.25
  Q 440.59 264.87 440.54 260.25
  Q 443.12 241.47 443.06 236.25
  C 442.94 225.04 427.82 224.35 420.03 223.43
  C 411.91 222.47 405.75 216.41 397.84 215.88
  Q 387.88 215.20 378.00 216.79
  Q 377.27 215.40 378.25 214.29
  Q 388.03 212.19 397.94 211.36
  A 0.59 0.59 0.0 0 0 398.27 210.31
  Q 396.17 208.60 393.50 209.04
  L 391.46 208.97
  Q 390.93 208.95 391.00 208.43
  L 391.05 208.02
  Q 391.11 207.59 390.68 207.55
  C 387.73 207.27 383.89 207.48 381.16 206.45
  C 379.40 205.78 376.95 206.19 375.75 206.08
  Q 361.23 204.71 346.71 203.39
  C 330.65 201.93 314.84 201.95 298.88 201.99
  A 0.52 0.52 0.0 0 0 298.36 202.53
  L 298.94 218.69
  Q 298.97 219.45 299.72 219.30
  Q 302.47 218.71 304.54 220.51
  L 299.72 220.78
  Q 299.25 220.81 299.25 221.27
  L 299.25 240.99
  Q 299.25 241.57 299.73 241.25
  L 304.00 238.46
  Q 305.78 238.75 305.25 240.71
  L 296.91 247.06
  A 0.32 0.32 0.0 0 1 296.40 246.80
  L 296.71 214.75
  Q 297.12 208.60 296.39 202.51
  Q 296.31 201.87 295.68 201.87
  L 283.75 201.79
  C 282.73 201.78 278.50 202.26 278.74 200.45
  Q 278.81 199.92 279.34 199.97
  Q 282.25 200.24 284.97 199.43
  Q 290.68 199.31 296.33 199.48
  C 305.96 199.77 315.97 199.61 322.93 199.84
  Q 356.56 200.98 390.19 202.08
  Q 392.17 202.14 397.03 202.58
  Q 397.60 202.63 397.34 202.13
  L 395.46 198.50
  Q 395.39 197.30 395.17 196.82
  Q 389.15 183.39 383.00 170.01
  C 376.33 155.52 368.43 141.02 361.19 126.50
  C 358.55 121.21 357.27 116.43 350.37 116.47
  C 339.49 116.53 328.58 116.53 317.71 117.09
  C 301.94 117.89 287.44 117.18 270.09 117.76
  C 257.01 118.19 243.82 117.41 230.97 117.55
  C 207.59 117.79 183.89 116.43 160.50 115.72
  Q 157.76 115.64 157.17 118.83
  Q 157.08 119.30 156.68 119.58
  L 154.80 120.87
  Q 154.38 121.15 154.27 121.65
  Q 153.72 123.94 152.62 126.10
  Q 134.76 160.97 117.35 196.08
  Q 116.80 197.19 117.04 200.00
  L 116.67 201.29
  Q 116.55 201.72 116.94 201.95
  Q 117.18 202.10 117.50 202.04
  C 116.94 204.26 116.87 207.48 115.54 209.25
  L 113.56 210.79
  Q 112.76 211.42 113.77 211.28
  C 115.44 211.06 116.74 210.91 118.40 211.14
  Q 134.68 213.38 150.75 216.79
  Q 151.18 217.93 150.62 218.65
  Q 150.29 219.07 149.76 218.98
  C 142.06 217.71 134.40 215.96 126.73 215.94
  Q 117.08 215.92 112.49 216.72
  C 107.43 217.60 101.65 221.63 95.61 222.52
  C 79.11 224.97 73.32 226.09 75.13 244.66
  Q 75.89 252.48 76.50 260.29
  L 77.53 274.82
  Q 78.25 290.24 79.61 298.44
  Q 81.87 312.00 94.12 318.03
  Q 95.59 318.75 94.53 320.00
  Q 94.15 320.46 93.50 320.54
  Q 75.12 312.69 72.46 292.75
  L 69.96 267.25
  L 68.17 239.25
  Q 68.13 238.73 67.62 238.67
  C 60.96 237.93 48.25 238.83 44.25 245.21
  Q 37.46 251.99 34.21 261.00
  L 32.43 260.64
  Q 31.99 260.55 31.73 260.19
  Q 30.72 258.84 29.00 258.71
  C 35.92 247.32 43.07 236.79 56.49 235.03
  Q 63.14 234.16 67.83 233.94
  Q 68.34 233.92 68.61 233.48
  C 75.34 222.62 80.39 220.70 92.79 218.78
  Q 97.35 218.08 96.39 213.27
  Q 96.29 212.79 96.51 212.34
  C 99.01 207.31 96.22 203.59 92.46 199.75
  L 92.57 199.28
  Q 92.64 198.97 92.42 198.74
  C 88.73 194.89 85.67 191.31 83.12 186.63
  Q 82.91 186.25 82.47 186.25
  L 59.76 186.25
  Q 59.31 186.25 59.26 185.80
  L 59.21 185.25
  Q 61.73 178.08 68.81 178.03
  Q 85.73 177.92 94.44 178.04
  Q 96.38 178.07 96.99 180.00
  Q 100.61 191.54 104.92 203.08
  Q 105.75 205.28 106.85 203.21
  C 110.51 196.36 114.08 188.08 117.15 181.98
  Q 131.75 152.95 146.41 123.95
  C 150.48 115.91 154.50 109.33 164.75 109.28
  Q 238.88 108.90 313.01 109.06
  C 321.18 109.08 336.16 108.85 347.74 109.13
  C 357.71 109.36 361.70 113.36 365.92 122.04
  Q 378.09 147.14 390.71 172.02
  C 395.48 181.43 400.06 192.28 405.06 202.35
  A 1.48 1.48 0.0 0 0 407.12 202.98
  C 409.85 201.43 413.09 182.95 416.11 178.71
  Q 416.42 178.28 416.95 178.26
  C 425.80 177.90 434.60 178.21 443.42 177.83
  Q 451.95 177.45 453.96 186.50
  Z"
/>
<path fill="#9abccf" d="
  M 395.46 198.50
  Q 389.74 188.52 382.96 173.77
  Q 376.06 158.76 359.60 126.36
  C 357.66 122.53 356.91 120.30 352.77 120.29
  C 334.28 120.25 308.79 119.58 285.69 119.53
  Q 222.10 119.37 159.06 119.96
  A 2.37 2.36 13.1 0 0 156.96 121.26
  L 117.04 200.00
  Q 116.80 197.19 117.35 196.08
  Q 134.76 160.97 152.62 126.10
  Q 153.72 123.94 154.27 121.65
  Q 154.38 121.15 154.80 120.87
  L 156.68 119.58
  Q 157.08 119.30 157.17 118.83
  Q 157.76 115.64 160.50 115.72
  C 183.89 116.43 207.59 117.79 230.97 117.55
  C 243.82 117.41 257.01 118.19 270.09 117.76
  C 287.44 117.18 301.94 117.89 317.71 117.09
  C 328.58 116.53 339.49 116.53 350.37 116.47
  C 357.27 116.43 358.55 121.21 361.19 126.50
  C 368.43 141.02 376.33 155.52 383.00 170.01
  Q 389.15 183.39 395.17 196.82
  Q 395.39 197.30 395.46 198.50
  Z"
/>
<path fill="#000000" d="
  M 395.46 198.50
  L 397.34 202.13
  Q 397.60 202.63 397.03 202.58
  Q 392.17 202.14 390.19 202.08
  Q 356.56 200.98 322.93 199.84
  C 315.97 199.61 305.96 199.77 296.33 199.48
  Q 290.68 199.31 284.97 199.43
  Q 287.44 198.52 290.00 198.44
  Q 293.94 198.32 295.01 198.14
  Q 336.51 191.08 378.01 183.95
  Q 378.52 183.86 378.43 183.36
  C 378.04 181.07 376.64 180.32 374.32 180.69
  C 335.38 186.83 296.50 194.08 257.37 198.90
  Q 256.80 198.97 256.58 198.44
  L 255.00 194.54
  L 255.74 195.25
  Q 256.13 195.62 256.68 195.58
  Q 258.83 195.42 260.97 195.09
  Q 302.30 188.70 343.75 183.28
  Q 344.46 183.19 347.00 182.46
  L 375.36 178.32
  Q 375.90 178.24 375.67 177.74
  Q 365.89 157.15 355.02 137.12
  C 353.39 134.12 353.31 131.77 349.01 131.78
  Q 321.54 131.89 293.99 131.52
  A 0.32 0.32 0.0 0 0 293.71 132.01
  Q 300.15 142.08 304.93 153.05
  A 0.26 0.26 0.0 0 1 304.65 153.41
  L 278.25 149.96
  Q 273.36 147.98 267.00 147.23
  Q 248.72 145.08 232.04 146.07
  Q 228.99 145.51 227.50 145.51
  Q 198.88 145.48 170.27 145.52
  C 167.24 145.52 165.52 148.87 164.02 151.09
  A 0.42 0.41 -72.8 0 0 164.36 151.74
  Q 194.87 151.85 225.50 151.41
  Q 226.66 151.39 227.87 151.81
  Q 228.35 151.97 228.56 152.43
  L 240.13 177.19
  Q 244.93 188.44 250.86 199.27
  Q 251.14 199.78 250.55 199.79
  L 117.50 202.04
  Q 117.18 202.10 116.94 201.95
  Q 116.55 201.72 116.67 201.29
  L 117.04 200.00
  L 156.96 121.26
  A 2.37 2.36 13.1 0 1 159.06 119.96
  Q 222.10 119.37 285.69 119.53
  C 308.79 119.58 334.28 120.25 352.77 120.29
  C 356.91 120.30 357.66 122.53 359.60 126.36
  Q 376.06 158.76 382.96 173.77
  Q 389.74 188.52 395.46 198.50
  Z"
/>
<path fill="#1080c2" d="
  M 347.00 182.46
  Q 347.68 180.79 347.48 179.00
  Q 347.42 178.55 346.97 178.50
  L 346.50 178.46
  L 347.29 178.20
  Q 347.92 177.99 347.32 177.70
  C 335.75 171.89 324.77 165.53 312.85 160.27
  C 303.24 156.04 291.57 155.05 280.50 154.04
  L 277.63 153.47
  Q 277.02 153.35 276.83 152.77
  L 276.20 150.79
  Q 275.97 150.05 276.74 150.02
  L 278.25 149.96
  L 304.65 153.41
  A 0.26 0.26 0.0 0 0 304.93 153.05
  Q 300.15 142.08 293.71 132.01
  A 0.32 0.32 0.0 0 1 293.99 131.52
  Q 321.54 131.89 349.01 131.78
  C 353.31 131.77 353.39 134.12 355.02 137.12
  Q 365.89 157.15 375.67 177.74
  Q 375.90 178.24 375.36 178.32
  L 347.00 182.46
  Z"
/>
<path fill="#26a0dd" d="
  M 232.04 146.07
  L 232.46 147.00
  Q 230.12 147.13 228.68 148.76
  Q 228.29 149.21 228.55 149.75
  Q 235.16 163.13 240.13 177.19
  L 228.56 152.43
  Q 228.35 151.97 227.87 151.81
  Q 226.66 151.39 225.50 151.41
  Q 194.87 151.85 164.36 151.74
  A 0.42 0.41 -72.8 0 1 164.02 151.09
  C 165.52 148.87 167.24 145.52 170.27 145.52
  Q 198.88 145.48 227.50 145.51
  Q 228.99 145.51 232.04 146.07
  Z"
/>
<path fill="#0a1b2d" d="
  M 278.25 149.96
  L 276.74 150.02
  Q 275.97 150.05 276.20 150.79
  L 276.83 152.77
  Q 277.02 153.35 277.63 153.47
  L 280.50 154.04
  Q 280.65 155.86 282.10 157.16
  Q 294.83 168.53 307.32 180.18
  Q 308.09 180.89 309.00 182.71
  Q 282.23 186.59 255.53 190.91
  C 254.64 191.06 254.26 191.42 254.04 192.25
  Q 244.16 169.19 232.46 147.00
  L 232.04 146.07
  Q 248.72 145.08 267.00 147.23
  Q 273.36 147.98 278.25 149.96
  Z"
/>
<path fill="#9abccf" d="
  M 232.46 147.00
  Q 244.16 169.19 254.04 192.25
  L 255.00 194.54
  L 256.58 198.44
  Q 256.80 198.97 257.37 198.90
  C 296.50 194.08 335.38 186.83 374.32 180.69
  C 376.64 180.32 378.04 181.07 378.43 183.36
  Q 378.52 183.86 378.01 183.95
  Q 336.51 191.08 295.01 198.14
  Q 293.94 198.32 290.00 198.44
  Q 287.44 198.52 284.97 199.43
  Q 282.25 200.24 279.34 199.97
  Q 278.81 199.92 278.74 200.45
  C 278.50 202.26 282.73 201.78 283.75 201.79
  Q 275.23 202.30 266.68 202.27
  Q 242.61 202.18 218.47 202.41
  Q 217.92 202.41 217.92 202.97
  L 218.04 219.75
  Q 218.21 230.36 218.48 240.97
  C 218.52 242.60 219.48 244.38 219.47 245.72
  A 0.94 0.94 0.0 0 1 217.87 246.39
  Q 212.42 241.03 206.54 238.50
  C 191.80 230.13 175.75 224.99 159.25 221.72
  L 156.46 220.68
  Q 156.06 220.53 155.76 220.83
  C 153.63 222.87 151.95 224.54 149.02 225.55
  C 138.99 229.02 128.89 231.23 118.71 234.06
  C 114.10 235.34 109.27 235.44 104.98 236.95
  C 98.29 239.30 85.68 242.62 81.47 249.00
  Q 78.04 254.20 76.50 260.29
  Q 75.89 252.48 75.13 244.66
  C 73.32 226.09 79.11 224.97 95.61 222.52
  C 101.65 221.63 107.43 217.60 112.49 216.72
  Q 117.08 215.92 126.73 215.94
  C 134.40 215.96 142.06 217.71 149.76 218.98
  Q 150.29 219.07 150.62 218.65
  Q 151.18 217.93 150.75 216.79
  C 172.56 221.35 197.11 228.25 215.01 240.60
  Q 215.49 240.93 215.49 240.35
  L 215.46 220.75
  Q 216.21 212.28 215.95 203.62
  Q 215.91 202.44 214.73 202.50
  C 194.26 203.52 173.98 203.14 153.48 204.83
  C 150.54 205.07 147.53 204.93 144.52 205.02
  C 140.63 205.13 136.66 206.84 132.32 206.95
  Q 131.82 206.96 131.44 207.30
  Q 129.40 209.10 126.75 209.29
  Q 121.14 208.56 115.54 209.25
  C 116.87 207.48 116.94 204.26 117.50 202.04
  L 250.55 199.79
  Q 251.14 199.78 250.86 199.27
  Q 244.93 188.44 240.13 177.19
  Q 235.16 163.13 228.55 149.75
  Q 228.29 149.21 228.68 148.76
  Q 230.12 147.13 232.46 147.00
  Z"
/>
<path fill="#000000" d="
  M 280.50 154.04
  C 291.57 155.05 303.24 156.04 312.85 160.27
  C 324.77 165.53 335.75 171.89 347.32 177.70
  Q 347.92 177.99 347.29 178.20
  L 346.50 178.46
  Q 329.66 180.06 313.00 183.00
  Q 311.45 183.27 309.00 182.71
  Q 308.09 180.89 307.32 180.18
  Q 294.83 168.53 282.10 157.16
  Q 280.65 155.86 280.50 154.04
  Z"
/>
<path fill="#26a0dd" d="
  M 346.50 178.46
  L 346.97 178.50
  Q 347.42 178.55 347.48 179.00
  Q 347.68 180.79 347.00 182.46
  Q 344.46 183.19 343.75 183.28
  Q 302.30 188.70 260.97 195.09
  Q 258.83 195.42 256.68 195.58
  Q 256.13 195.62 255.74 195.25
  L 255.00 194.54
  L 254.04 192.25
  C 254.26 191.42 254.64 191.06 255.53 190.91
  Q 282.23 186.59 309.00 182.71
  Q 311.45 183.27 313.00 183.00
  Q 329.66 180.06 346.50 178.46
  Z"
/>
<path fill="#000000" d="
  M 59.21 185.25
  L 59.26 185.80
  Q 59.31 186.25 59.76 186.25
  L 82.47 186.25
  Q 82.91 186.25 83.12 186.63
  C 85.67 191.31 88.73 194.89 92.42 198.74
  Q 92.64 198.97 92.57 199.28
  L 92.46 199.75
  L 91.47 199.15
  Q 91.05 198.89 90.55 198.96
  Q 79.49 200.49 68.35 199.78
  C 60.57 199.28 58.66 191.57 59.21 185.25
  Z"
/>
<path fill="#000000" d="
  M 453.96 186.50
  C 453.82 193.22 451.73 199.30 444.01 199.58
  C 435.51 199.88 427.67 200.56 419.24 198.85
  C 422.76 194.79 427.19 191.73 428.88 186.35
  Q 429.03 185.88 429.52 185.89
  L 453.96 186.50
  Z"
/>
<path fill="#368bb3" d="
  M 296.71 214.75
  L 296.46 213.57
  Q 296.35 213.03 295.81 213.13
  C 292.00 213.85 287.38 213.38 284.60 213.42
  Q 271.64 213.61 258.68 213.29
  C 256.27 213.23 253.57 213.77 251.00 213.77
  Q 238.01 213.76 225.03 214.33
  C 223.23 214.41 221.61 214.95 219.74 215.17
  Q 219.21 215.23 219.18 215.76
  Q 219.07 217.90 218.04 219.75
  L 217.92 202.97
  Q 217.92 202.41 218.47 202.41
  Q 242.61 202.18 266.68 202.27
  Q 275.23 202.30 283.75 201.79
  L 295.68 201.87
  Q 296.31 201.87 296.39 202.51
  Q 297.12 208.60 296.71 214.75
  Z"
/>
<path fill="#368bb3" d="
  M 393.50 209.04
  Q 372.88 211.87 357.00 215.25
  Q 330.28 220.94 304.54 220.51
  Q 302.47 218.71 299.72 219.30
  Q 298.97 219.45 298.94 218.69
  L 298.36 202.53
  A 0.52 0.52 0.0 0 1 298.88 201.99
  C 314.84 201.95 330.65 201.93 346.71 203.39
  Q 361.23 204.71 375.75 206.08
  C 376.95 206.19 379.40 205.78 381.16 206.45
  C 383.89 207.48 387.73 207.27 390.68 207.55
  Q 391.11 207.59 391.05 208.02
  L 391.00 208.43
  Q 390.93 208.95 391.46 208.97
  L 393.50 209.04
  Z"
/>
<path fill="#368bb3" d="
  M 215.46 220.75
  C 199.62 221.18 184.78 220.46 168.86 217.02
  Q 147.93 212.51 126.75 209.29
  Q 129.40 209.10 131.44 207.30
  Q 131.82 206.96 132.32 206.95
  C 136.66 206.84 140.63 205.13 144.52 205.02
  C 147.53 204.93 150.54 205.07 153.48 204.83
  C 173.98 203.14 194.26 203.52 214.73 202.50
  Q 215.91 202.44 215.95 203.62
  Q 216.21 212.28 215.46 220.75
  Z"
/>
<path fill="#000000" d="
  M 126.75 209.29
  Q 147.93 212.51 168.86 217.02
  C 184.78 220.46 199.62 221.18 215.46 220.75
  L 215.49 240.35
  Q 215.49 240.93 215.01 240.60
  C 197.11 228.25 172.56 221.35 150.75 216.79
  Q 134.68 213.38 118.40 211.14
  C 116.74 210.91 115.44 211.06 113.77 211.28
  Q 112.76 211.42 113.56 210.79
  L 115.54 209.25
  Q 121.14 208.56 126.75 209.29
  Z"
/>
<path fill="#000000" d="
  M 393.50 209.04
  Q 396.17 208.60 398.27 210.31
  A 0.59 0.59 0.0 0 1 397.94 211.36
  Q 388.03 212.19 378.25 214.29
  C 353.29 218.64 326.23 226.11 304.00 238.46
  L 299.73 241.25
  Q 299.25 241.57 299.25 240.99
  L 299.25 221.27
  Q 299.25 220.81 299.72 220.78
  L 304.54 220.51
  Q 330.28 220.94 357.00 215.25
  Q 372.88 211.87 393.50 209.04
  Z"
/>
<path fill="#074571" d="
  M 296.71 214.75
  L 296.40 246.80
  A 0.32 0.32 0.0 0 0 296.91 247.06
  L 305.25 240.71
  Q 311.89 236.75 319.00 233.71
  C 322.09 236.72 324.63 234.22 327.41 236.15
  Q 327.81 236.43 328.28 236.52
  C 330.79 237.00 332.86 237.43 335.61 237.47
  C 339.37 237.53 343.32 238.82 346.38 239.22
  Q 352.62 240.05 358.86 240.97
  C 361.46 241.35 364.56 240.99 367.47 241.76
  C 374.47 243.59 381.46 244.34 388.56 245.53
  Q 388.62 245.54 399.50 247.04
  C 408.46 248.27 423.07 251.92 429.05 259.06
  Q 429.36 259.44 429.27 259.91
  Q 428.99 261.45 430.18 262.39
  Q 430.51 262.65 430.66 263.06
  L 432.26 267.50
  Q 432.41 267.90 432.29 268.30
  L 431.71 270.25
  Q 429.94 268.16 428.00 268.04
  Q 417.71 267.43 398.31 267.67
  C 367.02 268.05 335.73 267.66 304.44 268.08
  Q 293.29 268.22 284.43 268.22
  Q 203.72 268.15 123.00 267.96
  L 124.28 267.76
  Q 124.68 267.70 124.93 267.39
  L 127.70 263.90
  Q 127.97 263.56 128.10 263.15
  C 128.49 261.93 135.69 259.43 137.20 258.78
  Q 137.37 258.71 137.75 258.75
  Q 137.92 258.77 138.03 258.89
  Q 138.26 259.16 138.60 259.05
  L 148.22 255.75
  Q 148.62 255.62 148.75 255.22
  C 149.11 254.15 157.69 251.16 159.07 250.71
  C 165.64 248.56 173.72 247.91 181.07 246.72
  C 184.52 246.16 188.11 244.36 191.51 243.81
  Q 199.32 242.54 204.87 240.74
  Q 205.35 240.59 205.60 240.15
  L 206.54 238.50
  Q 212.42 241.03 217.87 246.39
  A 0.94 0.94 0.0 0 0 219.47 245.72
  C 219.48 244.38 218.52 242.60 218.48 240.97
  Q 218.21 230.36 218.04 219.75
  Q 219.07 217.90 219.18 215.76
  Q 219.21 215.23 219.74 215.17
  C 221.61 214.95 223.23 214.41 225.03 214.33
  Q 238.01 213.76 251.00 213.77
  C 253.57 213.77 256.27 213.23 258.68 213.29
  Q 271.64 213.61 284.60 213.42
  C 287.38 213.38 292.00 213.85 295.81 213.13
  Q 296.35 213.03 296.46 213.57
  L 296.71 214.75
  Z
  M 260.57 262.31
  Q 260.38 260.75 260.91 259.24
  Q 261.12 258.63 260.48 258.61
  C 256.48 258.44 252.39 258.21 251.51 262.39
  A 1.68 1.67 -84.6 0 0 253.18 264.41
  L 265.80 264.18
  Q 266.34 264.17 266.46 263.64
  L 267.44 259.17
  Q 267.58 258.55 266.94 258.59
  L 262.96 258.82
  Q 262.43 258.85 262.38 259.37
  Q 262.24 261.02 261.42 262.47
  Q 260.75 263.67 260.57 262.31
  Z"
/>
<path fill="#26a0dd" d="
  M 378.25 214.29
  Q 377.27 215.40 378.00 216.79
  L 370.25 218.46
  L 353.25 222.71
  Q 335.51 226.32 319.00 233.71
  Q 311.89 236.75 305.25 240.71
  Q 305.78 238.75 304.00 238.46
  C 326.23 226.11 353.29 218.64 378.25 214.29
  Z"
/>
<path fill="#9abccf" d="
  M 440.54 260.25
  Q 440.57 249.31 433.03 241.80
  C 432.09 240.86 428.48 239.38 427.25 239.00
  Q 419.91 236.76 412.65 234.29
  C 405.29 231.79 397.55 230.75 390.31 228.07
  Q 384.53 225.93 378.81 223.60
  C 376.77 222.77 375.53 220.94 372.94 220.65
  Q 372.44 220.59 372.09 220.24
  L 370.25 218.46
  L 378.00 216.79
  Q 387.88 215.20 397.84 215.88
  C 405.75 216.41 411.91 222.47 420.03 223.43
  C 427.82 224.35 442.94 225.04 443.06 236.25
  Q 443.12 241.47 440.54 260.25
  Z"
/>
<path fill="#368bb3" d="
  M 370.25 218.46
  L 372.09 220.24
  Q 372.44 220.59 372.94 220.65
  C 375.53 220.94 376.77 222.77 378.81 223.60
  Q 384.53 225.93 390.31 228.07
  C 397.55 230.75 405.29 231.79 412.65 234.29
  Q 419.91 236.76 427.25 239.00
  C 428.48 239.38 432.09 240.86 433.03 241.80
  Q 440.57 249.31 440.54 260.25
  Q 440.59 264.87 439.29 269.25
  C 438.48 259.60 437.67 251.00 430.72 244.81
  Q 428.77 243.08 425.71 242.28
  Q 415.38 239.59 411.05 239.22
  C 403.06 238.53 394.15 236.49 387.72 235.34
  Q 381.26 234.18 374.81 233.02
  C 372.67 232.64 370.48 231.45 367.92 231.32
  Q 367.34 231.29 367.89 231.09
  Q 368.09 231.01 368.30 230.93
  Q 368.79 230.75 368.28 230.64
  Q 366.23 230.19 364.37 229.21
  Q 362.91 228.44 364.47 228.97
  Q 368.54 230.37 372.67 231.60
  Q 375.25 232.37 372.76 231.36
  Q 363.82 227.77 354.66 224.76
  Q 354.15 224.59 354.02 224.08
  Q 353.79 223.21 353.25 222.71
  L 370.25 218.46
  Z"
/>
<path fill="#368bb3" d="
  M 159.25 221.72
  Q 153.92 228.93 144.68 229.81
  Q 139.67 230.28 134.82 231.60
  Q 123.09 234.79 111.32 237.78
  C 106.15 239.09 99.39 239.23 94.60 242.18
  C 91.63 244.01 88.21 244.97 86.07 247.25
  C 81.79 251.79 80.96 259.15 79.93 264.95
  Q 79.68 266.36 78.60 269.82
  Q 77.84 272.24 77.53 274.82
  L 76.50 260.29
  Q 78.04 254.20 81.47 249.00
  C 85.68 242.62 98.29 239.30 104.98 236.95
  C 109.27 235.44 114.10 235.34 118.71 234.06
  C 128.89 231.23 138.99 229.02 149.02 225.55
  C 151.95 224.54 153.63 222.87 155.76 220.83
  Q 156.06 220.53 156.46 220.68
  L 159.25 221.72
  Z"
/>
<path fill="#0b6092" d="
  M 159.25 221.72
  C 175.75 224.99 191.80 230.13 206.54 238.50
  L 205.60 240.15
  Q 205.35 240.59 204.87 240.74
  Q 199.32 242.54 191.51 243.81
  C 188.11 244.36 184.52 246.16 181.07 246.72
  C 173.72 247.91 165.64 248.56 159.07 250.71
  C 157.69 251.16 149.11 254.15 148.75 255.22
  Q 148.62 255.62 148.22 255.75
  L 138.60 259.05
  Q 138.26 259.16 138.03 258.89
  Q 137.92 258.77 137.75 258.75
  Q 137.37 258.71 137.20 258.78
  C 135.69 259.43 128.49 261.93 128.10 263.15
  Q 127.97 263.56 127.70 263.90
  L 124.93 267.39
  Q 124.68 267.70 124.28 267.76
  L 123.00 267.96
  Q 107.44 268.50 91.82 268.21
  Q 88.43 268.14 86.90 269.28
  Q 84.25 271.23 85.70 275.09
  Q 84.66 283.07 85.45 291.38
  Q 85.51 291.96 86.09 291.97
  C 88.52 292.03 90.84 292.52 93.15 292.51
  Q 110.58 292.46 128.00 292.54
  Q 126.33 292.65 126.74 294.11
  A 0.77 0.77 0.0 0 0 127.44 294.67
  Q 147.89 295.70 166.75 295.04
  Q 182.74 295.90 198.75 295.92
  C 248.75 295.97 298.97 297.02 348.94 295.39
  Q 350.69 295.33 355.49 294.85
  C 362.31 294.17 369.04 294.93 375.98 294.11
  Q 376.26 294.08 376.25 293.79
  Q 376.25 293.65 376.25 293.52
  Q 376.24 293.03 375.76 293.02
  Q 375.33 293.00 375.00 292.79
  Q 398.84 292.28 422.69 292.44
  Q 426.87 292.47 430.99 291.65
  Q 431.51 291.55 431.75 291.07
  C 432.52 289.51 434.93 280.31 430.39 281.82
  Q 429.90 281.98 429.79 282.49
  L 429.46 284.01
  Q 429.31 284.71 428.78 284.24
  Q 427.22 282.86 424.75 282.90
  Q 396.38 283.36 357.25 282.98
  Q 356.72 282.97 356.42 283.40
  Q 353.67 287.30 353.00 291.96
  L 351.00 291.79
  Q 351.84 291.92 352.01 291.23
  Q 353.62 284.77 356.72 279.27
  Q 357.01 278.76 357.59 278.76
  L 432.20 278.75
  Q 432.52 278.75 432.53 278.43
  L 432.54 275.25
  Q 433.63 275.35 433.88 274.53
  Q 434.02 274.06 433.77 273.64
  L 431.71 270.25
  L 432.29 268.30
  Q 432.41 267.90 432.26 267.50
  L 430.66 263.06
  Q 430.51 262.65 430.18 262.39
  Q 428.99 261.45 429.27 259.91
  Q 429.36 259.44 429.05 259.06
  C 423.07 251.92 408.46 248.27 399.50 247.04
  Q 388.62 245.54 388.56 245.53
  C 381.46 244.34 374.47 243.59 367.47 241.76
  C 364.56 240.99 361.46 241.35 358.86 240.97
  Q 352.62 240.05 346.38 239.22
  C 343.32 238.82 339.37 237.53 335.61 237.47
  C 332.86 237.43 330.79 237.00 328.28 236.52
  Q 327.81 236.43 327.41 236.15
  C 324.63 234.22 322.09 236.72 319.00 233.71
  Q 335.51 226.32 353.25 222.71
  Q 353.79 223.21 354.02 224.08
  Q 354.15 224.59 354.66 224.76
  Q 363.82 227.77 372.76 231.36
  Q 375.25 232.37 372.67 231.60
  Q 368.54 230.37 364.47 228.97
  Q 362.91 228.44 364.37 229.21
  Q 366.23 230.19 368.28 230.64
  Q 368.79 230.75 368.30 230.93
  Q 368.09 231.01 367.89 231.09
  Q 367.34 231.29 367.92 231.32
  C 370.48 231.45 372.67 232.64 374.81 233.02
  Q 381.26 234.18 387.72 235.34
  C 394.15 236.49 403.06 238.53 411.05 239.22
  Q 415.38 239.59 425.71 242.28
  Q 428.77 243.08 430.72 244.81
  C 437.67 251.00 438.48 259.60 439.29 269.25
  Q 438.74 279.16 437.92 289.07
  C 436.78 302.89 436.26 310.79 424.46 317.26
  A 0.48 0.48 0.0 0 0 424.49 318.12
  Q 424.94 318.33 425.50 318.29
  Q 420.54 319.96 418.00 320.03
  C 404.97 320.39 391.74 320.98 378.91 320.98
  C 296.52 321.01 214.11 321.36 131.75 320.79
  C 124.61 320.19 115.43 320.74 110.42 320.72
  Q 102.21 320.70 94.00 320.79
  L 93.50 320.54
  Q 94.15 320.46 94.53 320.00
  Q 95.59 318.75 94.12 318.03
  Q 81.87 312.00 79.61 298.44
  Q 78.25 290.24 77.53 274.82
  Q 77.84 272.24 78.60 269.82
  Q 79.68 266.36 79.93 264.95
  C 80.96 259.15 81.79 251.79 86.07 247.25
  C 88.21 244.97 91.63 244.01 94.60 242.18
  C 99.39 239.23 106.15 239.09 111.32 237.78
  Q 123.09 234.79 134.82 231.60
  Q 139.67 230.28 144.68 229.81
  Q 153.92 228.93 159.25 221.72
  Z
  M 86.88 303.96
  Q 85.66 304.61 86.52 305.99
  Q 92.89 316.18 105.25 316.96
  C 120.42 317.90 139.24 317.25 154.06 317.31
  Q 184.69 317.44 215.31 317.95
  C 259.44 318.69 333.45 316.86 411.46 317.35
  C 418.61 317.40 426.16 311.04 430.19 305.56
  Q 431.40 304.31 430.19 303.00
  Q 429.83 302.61 429.30 302.55
  Q 425.53 302.11 421.75 302.09
  C 336.25 301.58 261.44 302.93 165.07 302.04
  C 148.41 301.89 132.59 302.21 115.07 301.99
  C 110.07 301.93 89.93 300.81 86.88 303.96
  Z"
/>
<path fill="#9abccf" d="
  M 478.25 254.46
  L 482.29 265.25
  Q 482.55 266.97 480.96 267.21
  C 475.67 268.01 474.58 263.47 473.82 259.49
  Q 473.79 259.29 473.59 259.26
  Q 473.41 259.23 473.29 259.25
  L 471.27 251.39
  Q 471.07 250.58 470.62 251.28
  C 469.29 253.33 471.08 270.42 471.29 274.00
  L 471.26 279.26
  A 0.79 0.79 0.0 0 1 470.30 280.02
  Q 467.61 279.45 465.09 280.58
  Q 464.93 280.66 465.02 280.81
  L 465.24 281.18
  Q 465.67 281.91 464.88 281.61
  Q 463.86 281.21 462.87 280.65
  Q 462.46 280.43 462.48 279.97
  Q 462.62 275.91 462.19 278.50
  C 462.12 273.52 461.73 256.65 458.03 251.45
  Q 457.18 250.26 457.28 251.72
  L 457.96 261.25
  L 457.62 261.92
  Q 457.36 262.44 456.79 262.34
  Q 451.74 261.48 446.86 261.88
  L 448.54 238.86
  Q 448.58 238.34 449.10 238.38
  C 458.58 239.03 468.05 238.85 472.48 248.69
  Q 472.69 249.15 473.17 249.32
  Q 476.97 250.68 478.25 254.46
  Z"
/>
<path fill="#9abccf" d="
  M 69.96 267.25
  Q 66.94 264.12 62.50 263.91
  L 62.82 257.83
  A 0.36 0.36 0.0 0 0 62.13 257.65
  Q 60.18 261.55 60.21 265.75
  C 57.71 266.50 52.69 268.44 50.54 266.50
  L 51.31 253.14
  Q 51.35 252.55 50.76 252.50
  C 48.00 252.27 46.56 269.28 46.46 271.25
  Q 44.76 271.72 43.45 270.72
  Q 43.05 270.41 42.55 270.38
  Q 39.33 270.19 36.54 268.50
  Q 38.32 256.30 44.44 245.60
  Q 44.50 245.50 44.42 245.40
  Q 44.33 245.31 44.25 245.21
  C 48.25 238.83 60.96 237.93 67.62 238.67
  Q 68.13 238.73 68.17 239.25
  L 69.96 267.25
  Z"
/>
<path fill="#000000" d="
  M 44.25 245.21
  Q 44.33 245.31 44.42 245.40
  Q 44.50 245.50 44.44 245.60
  Q 38.32 256.30 36.54 268.50
  Q 35.77 273.22 35.76 278.00
  C 35.73 303.45 35.77 328.86 36.11 354.32
  Q 36.12 354.85 36.45 355.28
  Q 39.37 359.04 39.56 360.48
  C 41.00 371.41 41.58 379.82 48.73 388.61
  A 0.44 0.44 0.0 0 0 49.47 388.14
  Q 43.92 376.65 43.58 363.80
  C 43.50 360.72 44.62 359.05 46.22 356.60
  Q 46.50 356.18 46.49 355.68
  Q 45.59 313.46 46.46 271.25
  C 46.56 269.28 48.00 252.27 50.76 252.50
  Q 51.35 252.55 51.31 253.14
  L 50.54 266.50
  Q 50.18 272.24 50.18 278.00
  Q 50.18 315.10 49.77 352.19
  C 49.73 355.34 51.72 357.61 51.86 360.94
  C 52.25 370.00 53.24 376.38 58.59 382.60
  A 0.89 0.89 0.0 0 0 60.12 381.76
  C 56.87 370.95 56.79 358.60 56.49 347.21
  C 56.40 343.76 57.58 341.67 59.92 339.45
  Q 60.29 339.10 60.29 338.59
  Q 60.25 300.63 59.91 289.31
  Q 59.50 275.76 60.21 265.75
  Q 60.18 261.55 62.13 257.65
  A 0.36 0.36 0.0 0 1 62.82 257.83
  L 62.50 263.91
  Q 62.09 267.83 61.99 271.57
  Q 61.16 303.91 61.72 336.25
  C 61.74 337.23 62.01 338.25 62.73 339.16
  C 71.30 349.92 64.37 364.01 71.22 373.01
  Q 71.52 373.41 71.92 373.10
  C 72.98 372.28 70.30 367.54 70.33 365.91
  Q 70.45 358.83 78.17 358.29
  C 81.77 365.29 85.79 382.23 94.74 384.27
  Q 97.15 384.82 106.67 385.20
  C 99.99 392.94 77.87 410.92 71.32 394.39
  Q 70.88 393.28 70.64 394.45
  L 69.99 397.57
  Q 69.90 398.01 69.62 398.35
  C 64.36 404.78 59.65 399.68 55.87 395.38
  Q 55.50 394.95 55.22 395.44
  L 53.01 399.40
  Q 52.73 399.90 52.20 400.16
  Q 47.90 402.26 44.18 398.77
  Q 31.71 387.08 31.75 369.49
  Q 31.84 323.04 31.77 276.56
  Q 31.75 269.87 34.21 261.00
  Q 37.46 251.99 44.25 245.21
  Z"
/>
<path fill="#000000" d="
  M 473.29 259.25
  Q 475.19 269.03 475.25 279.00
  Q 475.46 309.97 474.94 340.95
  C 474.88 345.01 475.19 347.95 477.19 351.12
  A 1.31 1.31 0.0 0 0 479.16 351.40
  C 484.07 347.10 485.27 343.20 485.35 336.30
  Q 485.58 317.66 485.36 284.44
  Q 485.29 273.93 482.29 265.25
  L 478.25 254.46
  Q 487.40 265.58 488.04 280.00
  C 488.44 302.24 488.23 320.56 488.25 338.16
  Q 488.26 362.73 477.06 382.56
  C 470.96 393.37 452.49 410.01 440.79 396.68
  Q 440.28 396.10 439.93 396.79
  C 432.58 411.26 425.03 388.59 418.47 388.26
  Q 417.87 388.23 417.96 388.82
  L 418.51 392.21
  Q 415.55 388.14 412.12 386.03
  A 0.44 0.44 0.0 0 1 412.36 385.22
  C 421.03 385.46 433.03 386.73 438.24 377.95
  Q 443.07 369.80 446.14 357.96
  Q 446.35 357.15 446.21 356.25
  Q 446.66 350.03 448.39 344.09
  C 450.75 336.00 450.34 326.57 449.70 318.33
  A 0.82 0.82 0.0 0 0 448.16 318.01
  C 444.27 325.26 439.61 332.51 431.92 336.28
  C 423.97 340.18 411.46 340.75 402.26 341.24
  A 0.35 0.35 0.0 0 1 402.05 340.60
  Q 414.87 332.20 425.88 321.52
  Q 426.25 321.16 426.40 320.68
  L 427.21 318.00
  Q 445.53 309.97 444.79 289.50
  Q 446.20 290.08 447.73 290.45
  C 451.36 291.32 453.09 294.76 453.27 298.26
  C 453.77 308.28 452.64 318.71 452.41 328.41
  Q 452.25 334.90 451.83 341.41
  Q 451.80 341.92 452.11 342.32
  C 453.50 344.08 454.28 345.28 454.30 347.66
  Q 454.41 361.23 450.46 374.24
  Q 450.06 375.56 450.02 378.67
  Q 450.01 379.28 450.62 379.26
  C 456.82 379.01 458.40 350.39 458.63 345.93
  C 458.87 341.34 460.50 337.41 460.49 332.61
  C 460.45 308.77 459.87 285.01 457.96 261.25
  L 457.28 251.72
  Q 457.18 250.26 458.03 251.45
  C 461.73 256.65 462.12 273.52 462.19 278.50
  L 462.24 333.96
  Q 462.24 334.35 462.39 334.70
  Q 462.61 335.21 462.47 335.83
  Q 462.35 336.36 462.69 336.78
  Q 465.98 340.81 465.99 342.80
  C 466.06 357.08 464.72 370.64 460.08 384.20
  A 0.83 0.83 0.0 0 0 461.18 385.24
  Q 461.98 384.92 462.61 383.87
  C 469.19 372.89 469.62 360.47 470.33 348.07
  C 470.41 346.70 471.56 345.14 471.55 344.00
  C 471.33 320.71 472.33 297.26 471.29 274.00
  C 471.08 270.42 469.29 253.33 470.62 251.28
  Q 471.07 250.58 471.27 251.39
  L 473.29 259.25
  Z"
/>
<path fill="#26a0dd" d="
  M 261.42 262.47
  Q 262.24 261.02 262.38 259.37
  Q 262.43 258.85 262.96 258.82
  L 266.94 258.59
  Q 267.58 258.55 267.44 259.17
  L 266.46 263.64
  Q 266.34 264.17 265.80 264.18
  L 253.18 264.41
  A 1.68 1.67 -84.6 0 1 251.51 262.39
  C 252.39 258.21 256.48 258.44 260.48 258.61
  Q 261.12 258.63 260.91 259.24
  Q 260.38 260.75 260.57 262.31
  Q 260.75 263.67 261.42 262.47
  Z
  M 255.1990 261.1193
  A 0.99 0.57 -35.2 0 0 254.0614 261.2242
  A 0.99 0.57 -35.2 0 0 253.5810 262.2607
  A 0.99 0.57 -35.2 0 0 254.7186 262.1558
  A 0.99 0.57 -35.2 0 0 255.1990 261.1193
  Z"
/>
<path fill="#098dd8" d="
  M 29.00 258.71
  Q 30.72 258.84 31.73 260.19
  Q 31.99 260.55 32.43 260.64
  L 34.21 261.00
  Q 31.75 269.87 31.77 276.56
  Q 31.84 323.04 31.75 369.49
  Q 31.71 387.08 44.18 398.77
  Q 47.90 402.26 52.20 400.16
  Q 52.73 399.90 53.01 399.40
  L 55.22 395.44
  Q 55.50 394.95 55.87 395.38
  C 59.65 399.68 64.36 404.78 69.62 398.35
  Q 69.90 398.01 69.99 397.57
  L 70.64 394.45
  Q 70.88 393.28 71.32 394.39
  C 77.87 410.92 99.99 392.94 106.67 385.20
  Q 108.19 384.59 109.91 384.92
  Q 98.66 398.18 84.86 403.15
  Q 78.82 405.32 71.46 402.25
  Q 71.01 402.06 70.59 402.29
  Q 63.50 406.18 56.76 401.75
  A 1.25 1.24 -47.3 0 0 55.30 401.81
  C 44.23 410.49 33.24 392.22 29.71 384.50
  Q 29.86 383.20 29.71 382.80
  Q 27.45 376.71 26.54 370.24
  Q 26.47 369.71 25.94 369.72
  Q 24.27 369.76 22.79 370.50
  Q 22.50 369.37 22.50 368.19
  Q 22.65 326.60 22.46 285.00
  C 22.42 276.26 23.65 266.65 29.00 258.71
  Z"
/>
<path fill="#1080c2" d="
  M 473.29 259.25
  Q 473.41 259.23 473.59 259.26
  Q 473.79 259.29 473.82 259.49
  C 474.58 263.47 475.67 268.01 480.96 267.21
  Q 482.55 266.97 482.29 265.25
  Q 485.29 273.93 485.36 284.44
  Q 485.58 317.66 485.35 336.30
  C 485.27 343.20 484.07 347.10 479.16 351.40
  A 1.31 1.31 0.0 0 1 477.19 351.12
  C 475.19 347.95 474.88 345.01 474.94 340.95
  Q 475.46 309.97 475.25 279.00
  Q 475.19 269.03 473.29 259.25
  Z"
/>
<ellipse fill="#0b6092" cx="0.00" cy="0.00" transform="translate(254.39,261.69) rotate(-35.2)" rx="0.99" ry="0.57"/>
<path fill="#0b6092" d="
  M 457.96 261.25
  C 459.87 285.01 460.45 308.77 460.49 332.61
  C 460.50 337.41 458.87 341.34 458.63 345.93
  C 458.40 350.39 456.82 379.01 450.62 379.26
  Q 450.01 379.28 450.02 378.67
  Q 450.06 375.56 450.46 374.24
  Q 454.41 361.23 454.30 347.66
  C 454.28 345.28 453.50 344.08 452.11 342.32
  Q 451.80 341.92 451.83 341.41
  Q 452.25 334.90 452.41 328.41
  C 452.64 318.71 453.77 308.28 453.27 298.26
  C 453.09 294.76 451.36 291.32 447.73 290.45
  Q 446.20 290.08 444.79 289.50
  L 446.86 261.88
  Q 451.74 261.48 456.79 262.34
  Q 457.36 262.44 457.62 261.92
  L 457.96 261.25
  Z"
/>
<path fill="#1080c2" d="
  M 69.96 267.25
  L 72.46 292.75
  Q 66.02 296.70 65.27 303.47
  C 63.34 320.95 73.08 332.19 88.73 338.20
  L 86.25 357.83
  Q 82.12 357.30 78.17 358.29
  Q 70.45 358.83 70.33 365.91
  C 70.30 367.54 72.98 372.28 71.92 373.10
  Q 71.52 373.41 71.22 373.01
  C 64.37 364.01 71.30 349.92 62.73 339.16
  C 62.01 338.25 61.74 337.23 61.72 336.25
  Q 61.16 303.91 61.99 271.57
  Q 62.09 267.83 62.50 263.91
  Q 66.94 264.12 69.96 267.25
  Z"
/>
<path fill="#098dd8" d="
  M 60.21 265.75
  Q 59.50 275.76 59.91 289.31
  Q 60.25 300.63 60.29 338.59
  Q 60.29 339.10 59.92 339.45
  C 57.58 341.67 56.40 343.76 56.49 347.21
  C 56.79 358.60 56.87 370.95 60.12 381.76
  A 0.89 0.89 0.0 0 1 58.59 382.60
  C 53.24 376.38 52.25 370.00 51.86 360.94
  C 51.72 357.61 49.73 355.34 49.77 352.19
  Q 50.18 315.10 50.18 278.00
  Q 50.18 272.24 50.54 266.50
  C 52.69 268.44 57.71 266.50 60.21 265.75
  Z"
/>
<path fill="#000000" d="
  M 431.71 270.25
  L 433.77 273.64
  Q 434.02 274.06 433.88 274.53
  Q 433.63 275.35 432.54 275.25
  Q 431.57 270.81 426.75 270.80
  Q 384.31 270.74 362.18 271.07
  C 357.37 271.14 354.42 270.90 352.06 274.79
  Q 347.73 281.92 348.70 290.17
  C 348.87 291.62 349.57 292.12 351.00 291.79
  L 353.00 291.96
  C 353.49 292.23 353.76 292.50 354.37 292.51
  Q 364.68 292.65 375.00 292.79
  Q 375.33 293.00 375.76 293.02
  Q 376.24 293.03 376.25 293.52
  Q 376.25 293.65 376.25 293.79
  Q 376.26 294.08 375.98 294.11
  C 369.04 294.93 362.31 294.17 355.49 294.85
  Q 350.69 295.33 348.94 295.39
  C 298.97 297.02 248.75 295.97 198.75 295.92
  Q 182.74 295.90 166.75 295.04
  L 165.69 294.90
  Q 165.04 294.82 165.18 294.17
  L 165.50 292.79
  L 166.50 292.71
  L 168.00 292.21
  C 175.26 291.47 170.16 278.79 168.22 275.29
  Q 165.79 270.88 160.50 270.84
  Q 105.49 270.34 90.81 270.48
  Q 86.97 270.52 85.70 275.09
  Q 84.25 271.23 86.90 269.28
  Q 88.43 268.14 91.82 268.21
  Q 107.44 268.50 123.00 267.96
  Q 203.72 268.15 284.43 268.22
  Q 293.29 268.22 304.44 268.08
  C 335.73 267.66 367.02 268.05 398.31 267.67
  Q 417.71 267.43 428.00 268.04
  Q 429.94 268.16 431.71 270.25
  Z
  M 172.08 278.32
  C 172.89 279.06 174.12 279.21 175.00 279.20
  C 231.22 278.95 287.46 279.37 343.68 278.72
  Q 347.47 278.68 347.91 275.17
  Q 347.97 274.72 347.52 274.72
  L 174.72 274.76
  A 2.77 2.49 -52.4 0 0 173.91 274.91
  Q 169.93 276.39 172.08 278.32
  Z"
/>
<path fill="#098dd8" d="
  M 36.54 268.50
  Q 39.33 270.19 42.55 270.38
  Q 43.05 270.41 43.45 270.72
  Q 44.76 271.72 46.46 271.25
  Q 45.59 313.46 46.49 355.68
  Q 46.50 356.18 46.22 356.60
  C 44.62 359.05 43.50 360.72 43.58 363.80
  Q 43.92 376.65 49.47 388.14
  A 0.44 0.44 0.0 0 1 48.73 388.61
  C 41.58 379.82 41.00 371.41 39.56 360.48
  Q 39.37 359.04 36.45 355.28
  Q 36.12 354.85 36.11 354.32
  C 35.77 328.86 35.73 303.45 35.76 278.00
  Q 35.77 273.22 36.54 268.50
  Z"
/>
<path fill="#f1f8fc" d="
  M 168.00 292.21
  C 165.95 288.10 165.95 283.29 163.05 279.24
  Q 162.72 278.78 162.16 278.78
  L 89.89 278.57
  A 1.74 1.74 0.0 0 0 88.24 280.86
  L 88.86 282.74
  Q 89.04 283.29 89.62 283.37
  Q 90.05 283.43 90.51 283.22
  Q 90.90 283.04 91.34 283.04
  L 162.39 283.33
  Q 162.90 283.33 163.16 283.77
  Q 165.67 287.99 166.50 292.71
  L 165.50 292.79
  L 128.00 292.54
  Q 110.58 292.46 93.15 292.51
  C 90.84 292.52 88.52 292.03 86.09 291.97
  Q 85.51 291.96 85.45 291.38
  Q 84.66 283.07 85.70 275.09
  Q 86.97 270.52 90.81 270.48
  Q 105.49 270.34 160.50 270.84
  Q 165.79 270.88 168.22 275.29
  C 170.16 278.79 175.26 291.47 168.00 292.21
  Z"
/>
<path fill="#f1f8fc" d="
  M 432.54 275.25
  L 432.53 278.43
  Q 432.52 278.75 432.20 278.75
  L 357.59 278.76
  Q 357.01 278.76 356.72 279.27
  Q 353.62 284.77 352.01 291.23
  Q 351.84 291.92 351.00 291.79
  C 349.57 292.12 348.87 291.62 348.70 290.17
  Q 347.73 281.92 352.06 274.79
  C 354.42 270.90 357.37 271.14 362.18 271.07
  Q 384.31 270.74 426.75 270.80
  Q 431.57 270.81 432.54 275.25
  Z"
/>
<path fill="#1f76ab" d="
  M 471.29 274.00
  C 472.33 297.26 471.33 320.71 471.55 344.00
  C 471.56 345.14 470.41 346.70 470.33 348.07
  C 469.62 360.47 469.19 372.89 462.61 383.87
  Q 461.98 384.92 461.18 385.24
  A 0.83 0.83 0.0 0 1 460.08 384.20
  C 464.72 370.64 466.06 357.08 465.99 342.80
  Q 465.98 340.81 462.69 336.78
  Q 462.35 336.36 462.47 335.83
  Q 462.61 335.21 462.39 334.70
  Q 462.24 334.35 462.24 333.96
  L 462.19 278.50
  Q 462.62 275.91 462.48 279.97
  Q 462.46 280.43 462.87 280.65
  Q 463.86 281.21 464.88 281.61
  Q 465.67 281.91 465.24 281.18
  L 465.02 280.81
  Q 464.93 280.66 465.09 280.58
  Q 467.61 279.45 470.30 280.02
  A 0.79 0.79 0.0 0 0 471.26 279.26
  L 471.29 274.00
  Z"
/>
<path fill="#1f76ab" d="
  M 172.08 278.32
  Q 169.93 276.39 173.91 274.91
  A 2.77 2.49 -52.4 0 1 174.72 274.76
  L 347.52 274.72
  Q 347.97 274.72 347.91 275.17
  Q 347.47 278.68 343.68 278.72
  C 287.46 279.37 231.22 278.95 175.00 279.20
  C 174.12 279.21 172.89 279.06 172.08 278.32
  Z"
/>
<path fill="#0b6092" d="
  M 168.00 292.21
  L 166.50 292.71
  Q 165.67 287.99 163.16 283.77
  Q 162.90 283.33 162.39 283.33
  L 91.34 283.04
  Q 90.90 283.04 90.51 283.22
  Q 90.05 283.43 89.62 283.37
  Q 89.04 283.29 88.86 282.74
  L 88.24 280.86
  A 1.74 1.74 0.0 0 1 89.89 278.57
  L 162.16 278.78
  Q 162.72 278.78 163.05 279.24
  C 165.95 283.29 165.95 288.10 168.00 292.21
  Z"
/>
<path fill="#26a0dd" d="
  M 490.96 280.25
  Q 491.10 312.88 490.82 345.51
  Q 490.70 359.48 489.41 365.41
  Q 484.89 386.33 465.94 398.70
  C 458.59 403.50 452.62 404.76 443.89 403.52
  Q 441.83 403.23 439.65 403.70
  C 429.45 405.89 426.50 398.93 418.50 393.96
  Q 419.88 392.73 418.51 392.21
  L 417.96 388.82
  Q 417.87 388.23 418.47 388.26
  C 425.03 388.59 432.58 411.26 439.93 396.79
  Q 440.28 396.10 440.79 396.68
  C 452.49 410.01 470.96 393.37 477.06 382.56
  Q 488.26 362.73 488.25 338.16
  C 488.23 320.56 488.44 302.24 488.04 280.00
  Q 489.58 279.43 490.96 280.25
  Z"
/>
<path fill="#f1f8fc" d="
  M 375.00 292.79
  Q 364.68 292.65 354.37 292.51
  C 353.76 292.50 353.49 292.23 353.00 291.96
  Q 353.67 287.30 356.42 283.40
  Q 356.72 282.97 357.25 282.98
  Q 396.38 283.36 424.75 282.90
  Q 427.22 282.86 428.78 284.24
  Q 429.31 284.71 429.46 284.01
  L 429.79 282.49
  Q 429.90 281.98 430.39 281.82
  C 434.93 280.31 432.52 289.51 431.75 291.07
  Q 431.51 291.55 430.99 291.65
  Q 426.87 292.47 422.69 292.44
  Q 398.84 292.28 375.00 292.79
  Z"
/>
<path fill="#074571" d="
  M 128.00 292.54
  L 165.50 292.79
  L 165.18 294.17
  Q 165.04 294.82 165.69 294.90
  L 166.75 295.04
  Q 147.89 295.70 127.44 294.67
  A 0.77 0.77 0.0 0 1 126.74 294.11
  Q 126.33 292.65 128.00 292.54
  Z"
/>
<path fill="#000000" d="
  M 72.46 292.75
  Q 75.12 312.69 93.50 320.54
  L 94.00 320.79
  Q 110.88 328.76 129.03 333.66
  L 141.87 336.32
  A 0.42 0.41 36.3 0 1 141.99 337.09
  L 140.00 338.21
  Q 132.74 341.14 125.65 344.47
  C 116.35 348.84 98.26 341.70 88.73 338.20
  C 73.08 332.19 63.34 320.95 65.27 303.47
  Q 66.02 296.70 72.46 292.75
  Z"
/>
<path fill="#093351" d="
  M 430.19 305.56
  Q 427.30 305.91 424.67 306.62
  C 418.93 308.17 412.76 308.44 407.19 308.43
  C 305.80 308.27 204.38 307.97 103.00 308.75
  C 97.97 308.79 90.35 307.76 86.88 303.96
  C 89.93 300.81 110.07 301.93 115.07 301.99
  C 132.59 302.21 148.41 301.89 165.07 302.04
  C 261.44 302.93 336.25 301.58 421.75 302.09
  Q 425.53 302.11 429.30 302.55
  Q 429.83 302.61 430.19 303.00
  Q 431.40 304.31 430.19 305.56
  Z"
/>
<path fill="#000000" d="
  M 86.88 303.96
  C 90.35 307.76 97.97 308.79 103.00 308.75
  C 204.38 307.97 305.80 308.27 407.19 308.43
  C 412.76 308.44 418.93 308.17 424.67 306.62
  Q 427.30 305.91 430.19 305.56
  C 426.16 311.04 418.61 317.40 411.46 317.35
  C 333.45 316.86 259.44 318.69 215.31 317.95
  Q 184.69 317.44 154.06 317.31
  C 139.24 317.25 120.42 317.90 105.25 316.96
  Q 92.89 316.18 86.52 305.99
  Q 85.66 304.61 86.88 303.96
  Z"
/>
<path fill="#0a1b2d" d="
  M 446.21 356.25
  C 445.08 356.42 444.03 356.76 442.90 356.76
  Q 423.12 356.72 403.33 356.77
  Q 395.67 356.79 392.89 357.73
  C 385.73 360.14 381.61 367.83 378.96 374.50
  Q 378.78 373.81 378.25 373.46
  Q 377.80 373.15 377.42 373.55
  L 376.54 374.50
  C 377.79 371.24 381.60 364.28 379.96 361.05
  C 376.61 354.47 369.47 343.43 362.00 341.75
  C 356.37 340.48 346.17 341.46 341.34 341.47
  Q 248.70 341.64 156.06 341.31
  Q 151.97 341.30 147.50 342.79
  L 141.42 340.58
  Q 140.93 340.40 140.87 339.89
  Q 140.73 338.85 140.00 338.21
  L 141.99 337.09
  A 0.42 0.41 36.3 0 0 141.87 336.32
  L 129.03 333.66
  L 130.22 321.83
  Q 130.27 321.35 130.74 321.28
  Q 131.33 321.18 131.75 320.79
  C 214.11 321.36 296.52 321.01 378.91 320.98
  C 391.74 320.98 404.97 320.39 418.00 320.03
  Q 420.54 319.96 425.50 318.29
  L 427.21 318.00
  L 426.40 320.68
  Q 426.25 321.16 425.88 321.52
  Q 414.87 332.20 402.05 340.60
  A 0.35 0.35 0.0 0 0 402.26 341.24
  C 411.46 340.75 423.97 340.18 431.92 336.28
  C 439.61 332.51 444.27 325.26 448.16 318.01
  A 0.82 0.82 0.0 0 1 449.70 318.33
  C 450.34 326.57 450.75 336.00 448.39 344.09
  Q 446.66 350.03 446.21 356.25
  Z"
/>
<path fill="#093351" d="
  M 131.75 320.79
  Q 131.33 321.18 130.74 321.28
  Q 130.27 321.35 130.22 321.83
  L 129.03 333.66
  Q 110.88 328.76 94.00 320.79
  Q 102.21 320.70 110.42 320.72
  C 115.43 320.74 124.61 320.19 131.75 320.79
  Z"
/>
<path fill="#0b6092" d="
  M 88.73 338.20
  C 98.26 341.70 116.35 348.84 125.65 344.47
  Q 132.74 341.14 140.00 338.21
  Q 140.73 338.85 140.87 339.89
  Q 140.93 340.40 141.42 340.58
  L 147.50 342.79
  C 139.60 346.36 133.76 356.95 131.29 365.00
  C 129.53 360.34 124.89 358.63 120.25 358.53
  Q 103.25 358.17 86.25 357.83
  L 88.73 338.20
  Z"
/>
<path fill="#1f76ab" d="
  M 376.54 374.50
  C 372.30 380.12 367.84 387.38 361.68 390.92
  C 358.00 393.04 352.25 393.07 347.99 393.05
  Q 252.28 392.73 156.56 392.88
  C 150.96 392.89 148.08 390.18 144.26 385.62
  Q 140.82 381.51 136.66 378.06
  L 131.29 365.00
  C 133.76 356.95 139.60 346.36 147.50 342.79
  Q 151.97 341.30 156.06 341.31
  Q 248.70 341.64 341.34 341.47
  C 346.17 341.46 356.37 340.48 362.00 341.75
  C 369.47 343.43 376.61 354.47 379.96 361.05
  C 381.60 364.28 377.79 371.24 376.54 374.50
  Z
  M 366.51 349.38
  C 362.78 345.43 360.53 345.02 355.25 345.02
  Q 255.90 344.97 156.56 345.07
  C 146.65 345.09 137.27 355.56 136.41 365.21
  Q 136.37 365.73 136.66 366.17
  Q 141.27 373.16 145.79 380.22
  C 149.19 385.53 151.48 388.42 157.25 388.45
  Q 277.50 388.98 354.44 388.58
  Q 359.40 388.55 362.01 385.76
  C 364.07 383.56 377.34 366.33 375.49 362.50
  Q 371.98 355.19 366.51 349.38
  Z"
/>
<path fill="#000000" d="
  M 366.51 349.38
  Q 371.98 355.19 375.49 362.50
  C 377.34 366.33 364.07 383.56 362.01 385.76
  Q 359.40 388.55 354.44 388.58
  Q 277.50 388.98 157.25 388.45
  C 151.48 388.42 149.19 385.53 145.79 380.22
  Q 141.27 373.16 136.66 366.17
  Q 136.37 365.73 136.41 365.21
  C 137.27 355.56 146.65 345.09 156.56 345.07
  Q 255.90 344.97 355.25 345.02
  C 360.53 345.02 362.78 345.43 366.51 349.38
  Z"
/>
<path fill="#0b6092" d="
  M 446.21 356.25
  Q 446.35 357.15 446.14 357.96
  Q 443.07 369.80 438.24 377.95
  C 433.03 386.73 421.03 385.46 412.36 385.22
  A 0.44 0.44 0.0 0 0 412.12 386.03
  Q 415.55 388.14 418.51 392.21
  Q 419.88 392.73 418.50 393.96
  Q 410.61 391.55 404.82 385.82
  Q 404.46 385.47 403.96 385.48
  C 393.06 385.67 380.61 388.10 378.96 374.50
  C 381.61 367.83 385.73 360.14 392.89 357.73
  Q 395.67 356.79 403.33 356.77
  Q 423.12 356.72 442.90 356.76
  C 444.03 356.76 445.08 356.42 446.21 356.25
  Z
  M 386.96 380.28
  Q 388.50 381.30 389.32 381.29
  C 402.09 381.06 415.32 381.68 428.01 380.51
  C 433.46 380.01 438.19 365.46 439.46 361.05
  A 0.42 0.42 0.0 0 0 439.06 360.51
  Q 420.17 360.47 401.32 360.52
  Q 396.23 360.53 393.92 361.47
  C 388.69 363.60 380.12 375.75 386.96 380.28
  Z"
/>
<path fill="#9abccf" d="
  M 86.25 357.83
  Q 103.25 358.17 120.25 358.53
  C 124.89 358.63 129.53 360.34 131.29 365.00
  L 136.66 378.06
  C 131.44 386.80 119.47 385.40 109.91 384.92
  Q 108.19 384.59 106.67 385.20
  Q 97.15 384.82 94.74 384.27
  C 85.79 382.23 81.77 365.29 78.17 358.29
  Q 82.12 357.30 86.25 357.83
  Z
  M 127.29 365.50
  Q 124.22 361.87 121.25 361.75
  Q 108.00 361.23 94.75 360.71
  L 86.26 359.97
  Q 85.38 359.89 85.57 360.75
  C 86.90 366.61 91.60 381.16 98.75 381.50
  C 101.85 381.64 125.47 383.29 129.30 380.50
  C 133.99 377.08 130.54 368.92 127.29 365.50
  Z"
/>
<path fill="#0b6092" d="
  M 94.75 360.71
  L 92.22 360.76
  Q 91.99 360.76 92.00 360.99
  Q 92.00 361.12 92.00 361.26
  Q 92.00 361.74 92.48 361.81
  Q 104.87 363.60 109.50 363.76
  Q 118.96 364.08 123.00 364.72
  C 123.57 364.82 127.16 367.29 127.29 365.50
  C 130.54 368.92 133.99 377.08 129.30 380.50
  C 125.47 383.29 101.85 381.64 98.75 381.50
  C 91.60 381.16 86.90 366.61 85.57 360.75
  Q 85.38 359.89 86.26 359.97
  L 94.75 360.71
  Z"
/>
<path fill="#000000" d="
  M 386.96 380.28
  C 380.12 375.75 388.69 363.60 393.92 361.47
  Q 396.23 360.53 401.32 360.52
  Q 420.17 360.47 439.06 360.51
  A 0.42 0.42 0.0 0 1 439.46 361.05
  C 438.19 365.46 433.46 380.01 428.01 380.51
  C 415.32 381.68 402.09 381.06 389.32 381.29
  Q 388.50 381.30 386.96 380.28
  Z"
/>
<path fill="#093351" d="
  M 94.75 360.71
  Q 108.00 361.23 121.25 361.75
  Q 124.22 361.87 127.29 365.50
  C 127.16 367.29 123.57 364.82 123.00 364.72
  Q 118.96 364.08 109.50 363.76
  Q 104.87 363.60 92.48 361.81
  Q 92.00 361.74 92.00 361.26
  Q 92.00 361.12 92.00 360.99
  Q 91.99 360.76 92.22 360.76
  L 94.75 360.71
  Z"
/>
<path fill="#000000" d="
  M 29.71 384.50
  Q 24.72 378.23 22.79 370.50
  Q 24.27 369.76 25.94 369.72
  Q 26.47 369.71 26.54 370.24
  Q 27.45 376.71 29.71 382.80
  Q 29.86 383.20 29.71 384.50
  Z"
/>
</svg>
